<?xml version="1.0" encoding="utf-8"?>
<!-- Generator: Adobe Illustrator 21.0.0, SVG Export Plug-In . SVG Version: 6.00 Build 0)  -->
<svg version="1.1"  xmlns="http://www.w3.org/2000/svg" xmlns:xlink="http://www.w3.org/1999/xlink" x="0px" y="0px"
	 viewBox="0 0 180.8 73.9" style="enable-background:new 0 0 180.8 73.9;" xml:space="preserve">
<style type="text/css">
	.st0{fill:#FFFFFF;}
	.st1{fill:#E2231A;}
</style>
<g>
	<path class="st0" d="M17.5,34.8c0,3.1-1.4,4.9-5,4.9H9.5V30c0.4,0,1.7-0.1,2.1-0.1h1.1C16.3,30,17.5,31.6,17.5,34.8 M24.9,46.7
		c0-4.7-3.8-6.4-8.5-6.5V40c4-0.3,7.2-2,7.2-6c0-4.5-3.7-5.3-7.8-5.3c-5,0-10.8,0.1-15.7,0V30c1.1-0.1,3.6,0.1,3.6,1.4V51
		c0,1.3-2.6,1.5-3.6,1.5v1.2c4.8-0.1,10.5,0,15.3,0C20.3,53.7,24.9,51.9,24.9,46.7z M18.5,46.3c0,4.1-1.4,6-6.1,6H9.5V40.9h3.1
		C16.9,40.9,18.5,42.5,18.5,46.3z"/>
	<path class="st0" d="M56.9,53.6c-2.2,0-4.4,0-6.7,0v-1.3c1,0,3.8-0.1,3.8-1.4V32.7H54L43.7,53.9h-1.1l-9.9-21.2h-0.1V51
		c0,1.4,2.9,1.4,4,1.4l0,1.3c-2.8-0.1-6.6-0.2-9.3,0v-1.3c1.1,0,3.6-0.1,3.6-1.4V31.4c0-1.3-2.6-1.4-3.6-1.4l0-1.2
		c3.2,0.1,6.6,0.1,9.7,0l8.5,17.8l8.6-17.8c3,0.1,6.3,0.1,9.4,0V30c-1,0-3.7,0.1-3.7,1.4V51c0,1.4,2.6,1.4,3.7,1.4v1.3
		C61.4,53.6,59.1,53.6,56.9,53.6"/>
	<path class="st0" d="M87,41.1c0,4.9-0.5,11.7-7.5,11.7c-7.1,0-7.6-6.8-7.6-11.7c0-4.9,0.5-11.6,7.6-11.6C86.5,29.5,87,36.3,87,41.1
		 M93.6,41.1c0-8.2-5-12.9-14.1-12.9c-9.1,0-14.2,4.6-14.2,12.9c0,8.3,5,12.9,14.2,12.9C88.6,54,93.6,49.4,93.6,41.1z"/>
</g>
<path class="st1" d="M144.8,1.9c-19.9,0-36,16.1-36,36c0,19.9,16.1,36,36,36c19.9,0,36-16.1,36-36C180.8,18.1,164.7,1.9,144.8,1.9z"
	/>
<path class="st0" d="M143.7,27l-6.3-8.1c-0.3-0.3-0.7-0.6-1.1-0.6c-0.4,0-0.8,0.2-1.1,0.5l-7.4,9.4v14.7l7.4-9.5
	c0.3-0.3,0.7-0.6,1.1-0.6c0.5,0,0.9,0.2,1.1,0.6l6.3,8.2c0.2,0.3,0.6,0.5,1,0.5c0.4,0,0.8-0.2,1-0.5l6.3-8.2
	c0.3-0.3,0.7-0.6,1.1-0.6c0.5,0,0.9,0.2,1.1,0.6l7.4,9.5V28.2l-7.4-9.4c-0.3-0.3-0.6-0.5-1.1-0.5c-0.5,0-0.9,0.2-1.1,0.6l-6.3,8.1
	c-0.3,0.3-0.7,0.5-1.1,0.5S144,27.3,143.7,27z M161.8,53.6h-34l0,0l0,0V42.9h34l0,0l0,0V53.6z"/>
</svg>
