<?xml version="1.0" encoding="UTF-8"?>
<svg width="14px" height="14px" viewBox="0 0 14 14" version="1.1" xmlns="http://www.w3.org/2000/svg" xmlns:xlink="http://www.w3.org/1999/xlink">
    <!-- Generator: sketchtool 51.3 (57544) - http://www.bohemiancoding.com/sketch -->
    <title>D20A848F-F9EC-4AA3-9651-2C281FEAA05D-461-000044F5F4ECE7EA</title>
    <desc>Created with sketchtool.</desc>
    <defs>
        <path d="M8,13.25 C10.8994949,13.25 13.25,10.8994949 13.25,8 C13.25,5.10050506 10.8994949,2.75 8,2.75 C5.10050506,2.75 2.75,5.10050506 2.75,8 C2.75,10.8994949 5.10050506,13.25 8,13.25 Z M8,15 C4.13400675,15 1,11.8659932 1,8 C1,4.13400675 4.13400675,1 8,1 C11.8659932,1 15,4.13400675 15,8 C15,11.8659932 11.8659932,15 8,15 Z M8,7.125 C8.48324916,7.125 8.875,7.51675084 8.875,8 L8.875,10.625 C8.875,11.1082492 8.48324916,11.5 8,11.5 C7.51675084,11.5 7.125,11.1082492 7.125,10.625 L7.125,8 C7.125,7.51675084 7.51675084,7.125 8,7.125 Z M8,6.25 C7.51675084,6.25 7.125,5.85824916 7.125,5.375 C7.125,4.89175084 7.51675084,4.5 8,4.5 C8.48324916,4.5 8.875,4.89175084 8.875,5.375 C8.875,5.85824916 8.48324916,6.25 8,6.25 Z" id="path-1"></path>
    </defs>
    <g id="1.4---Create-client-ID" stroke="none" stroke-width="1" fill="none" fill-rule="evenodd">
        <g id="1.4a---Create-ID-(New-User)---States" transform="translate(-449.000000, -1120.000000)">
            <g id="Input-Field-/-Helper-Text-/-Negative-Copy-2" transform="translate(448.000000, 1115.000000)">
                <g id="Icon/Warning2" transform="translate(0.000000, 4.000000)">
                    <mask id="mask-2" fill="white">
                        <use xlink:href="#path-1"></use>
                    </mask>
                    <g id="contextual-help" fill-rule="nonzero" transform="translate(8.000000, 8.000000) rotate(-180.000000) translate(-8.000000, -8.000000) "></g>
                    <g id="Colour/Primary/BMOBlue" mask="url(#mask-2)" fill="#C81414">
                        <rect id="#C81414" x="0" y="0" width="16" height="16" rx="3.2"></rect>
                    </g>
                </g>
            </g>
        </g>
    </g>
</svg>