<svg xmlns="http://www.w3.org/2000/svg" viewBox="0 0 16 16"><defs><style>.cls-1{fill:#000000;fill-rule:evenodd;}.cls-2{fill:none;}</style></defs><title>1</title><g id="Layer_1" data-name="Layer 1"><path class="cls-1" d="M1,4A1,1,0,0,1,2,3H14a1,1,0,1,1,0,2H2A1,1,0,0,1,1,4ZM4,9h8a1,1,0,0,0,1-1,1,1,0,0,0-1-1H4A1,1,0,0,0,3,8,1,1,0,0,0,4,9Zm2,4h4a1,1,0,0,0,1-1,1,1,0,0,0-1-1H6a1,1,0,0,0-1,1A1,1,0,0,0,6,13Z"/></g><g id="transparent_bounding_box" data-name="transparent bounding box"><rect class="cls-2" width="16" height="16"/></g></svg>