<?xml version="1.0" encoding="UTF-8"?>
<svg width="16px" height="16px" viewBox="0 0 16 16" version="1.1" xmlns="http://www.w3.org/2000/svg" xmlns:xlink="http://www.w3.org/1999/xlink">
    <!-- Generator: Sketch 54.1 (76490) - https://sketchapp.com -->
    <title>16/inline-error</title>
    <desc>Created with Sketch.</desc>
    <defs>
        <path d="M8,16 C3.581722,16 5.41083001e-16,12.418278 0,8 C-5.41083001e-16,3.581722 3.581722,8.11624501e-16 8,0 C12.418278,-8.11624501e-16 16,3.581722 16,8 C16,10.1217319 15.1571453,12.1565632 13.6568542,13.6568542 C12.1565632,15.1571453 10.1217319,16 8,16 Z M8,14 C11.3137085,14 14,11.3137085 14,8 C14,4.6862915 11.3137085,2 8,2 C4.6862915,2 2,4.6862915 2,8 C2,11.3137085 4.6862915,14 8,14 Z M7,5 L7,8 C7,8.55228475 7.44771525,9 8,9 C8.55228475,9 9,8.55228475 9,8 L9,5 C9,4.44771525 8.55228475,4 8,4 L8,4 C7.44771525,4 7,4.44771525 7,5 Z M8,12 C8.55228475,12 9,11.5522847 9,11 C9,10.4477153 8.55228475,10 8,10 C7.44771525,10 7,10.4477153 7,11 C7,11.5522847 7.44771525,12 8,12 Z" id="path-1"></path>
    </defs>
    <g id="16/inline-error" stroke="none" stroke-width="1" fill="none" fill-rule="evenodd">
        <mask id="mask-2" fill="white">
            <use xlink:href="#path-1"></use>
        </mask>
        <g id="Shape" fill-rule="nonzero"></g>
        <g id="Base/Colour/Negative" mask="url(#mask-2)" fill="#C81414">
            <g transform="translate(-22.000000, -22.000000)">
                <rect x="0" y="0" width="60" height="60"></rect>
            </g>
        </g>
    </g>
</svg>