<?xml version="1.0" encoding="utf-8"?>
<!-- Generator: Adobe Illustrator 23.0.3, SVG Export Plug-In . SVG Version: 6.00 Build 0)  -->
<svg version="1.1" id="Layer_1" xmlns="http://www.w3.org/2000/svg" xmlns:xlink="http://www.w3.org/1999/xlink" x="0px" y="0px"
	 viewBox="0 0 16 16" style="enable-background:new 0 0 16 16;" xml:space="preserve">
<style type="text/css">
	.st0{fill:#C81414;}
	.st1{fill:none;}
</style>
<title>1</title>
<path class="st0" d="M8,16c-4.4,0-8-3.6-8-8s3.6-8,8-8s8,3.6,8,8S12.4,16,8,16z M8,14c3.3,0,6-2.7,6-6s-2.7-6-6-6S2,4.7,2,8
	S4.7,14,8,14z M7,5v3c0,0.6,0.4,1,1,1s1-0.4,1-1V5c0-0.6-0.4-1-1-1l0,0C7.4,4,7,4.4,7,5z M8,12c0.6,0,1-0.4,1-1s-0.4-1-1-1
	s-1,0.4-1,1S7.4,12,8,12z"/>
<rect class="st1" width="16" height="16"/>
</svg>
