<svg xmlns="http://www.w3.org/2000/svg" viewBox="0 0 16 16"><defs><style>.cls-1{fill:#000000;}.cls-2{fill:none;}</style></defs><title>1</title><g id="Layer_1" data-name="Layer 1"><path class="cls-1" d="M15,14.22a.78.78,0,0,1-.78.78H10.33a.77.77,0,0,1-.77-.78V10.33a.76.76,0,0,1,.77-.77.77.77,0,0,1,.78.77v2.14A5.45,5.45,0,0,0,8.65,2.59.77.77,0,0,1,8,1.73a.78.78,0,0,1,.87-.68,7,7,0,0,1,3.54,12.39h1.84A.78.78,0,0,1,15,14.22ZM7.32,13.4A5.45,5.45,0,0,1,4.89,3.53V5.67a.77.77,0,0,0,.78.77.76.76,0,0,0,.77-.77V1.78A.77.77,0,0,0,5.67,1H1.78a.78.78,0,0,0,0,1.56H3.62A6.91,6.91,0,0,0,1,8a7,7,0,0,0,6.13,7h.09a.78.78,0,0,0,.1-1.55Z"/></g><g id="transparent_bounding_box" data-name="transparent bounding box"><rect class="cls-2" width="16" height="16"/></g></svg>