<?xml version="1.0" encoding="utf-8"?>
<!-- Generator: Adobe Illustrator 23.0.3, SVG Export Plug-In . SVG Version: 6.00 Build 0)  -->
<svg version="1.1" id="Layer_1" xmlns="http://www.w3.org/2000/svg" xmlns:xlink="http://www.w3.org/1999/xlink" x="0px" y="0px"
	 viewBox="0 0 139.9 139.9" style="enable-background:new 0 0 139.9 139.9;" xml:space="preserve">
<style type="text/css">
	.st0{fill:#ED1C24;}
	.st1{fill:none;}
	.st2{fill:#FFFFFF;}
</style>
<title>BMO-MB</title>
<path class="st0" d="M70.8,34c-19.9,0-36,16.1-36,36s16.1,36,36,36s36-16.1,36-36S90.6,34,70.8,34z"/>
<rect x="106.8" class="st1" width="34" height="34"/>
<rect x="106.8" y="106" class="st1" width="34" height="34"/>
<path class="st2" d="M69.7,59l-6.3-8.2c-0.3-0.3-0.7-0.6-1.1-0.5c-0.4,0-0.8,0.2-1.1,0.5l-7.4,9.4v14.7l7.4-9.5
	c0.3-0.3,0.7-0.5,1.1-0.6c0.4,0,0.9,0.2,1.1,0.6l6.3,8.2c0.2,0.3,0.6,0.5,1,0.5c0.4,0,0.8-0.2,1-0.5l6.3-8.2
	c0.3-0.4,0.7-0.6,1.1-0.6c0.4,0,0.9,0.2,1.1,0.6l7.4,9.5V60.2l-7.4-9.4c-0.3-0.3-0.7-0.5-1.1-0.5c-0.4,0-0.8,0.2-1.1,0.5L71.9,59
	c-0.3,0.3-0.7,0.5-1.1,0.5C70.3,59.5,69.9,59.3,69.7,59z M87.8,85.7h-34l0,0l0,0V74.9h34l0,0l0,0V85.7z"/>
</svg>
