<?xml version="1.0" encoding="utf-8"?>
<!-- Generator: Adobe Illustrator 22.1.0, SVG Export Plug-In . SVG Version: 6.00 Build 0)  -->
<svg version="1.1" id="Layer_1" xmlns="http://www.w3.org/2000/svg" xmlns:xlink="http://www.w3.org/1999/xlink" x="0px" y="0px"
	 viewBox="0 0 589.1 178.1" style="enable-background:new 0 0 589.1 178.1;" xml:space="preserve">
<style type="text/css">
	.st0{fill:#0079C1;}
	.st1{fill:#ED1C24;}
	.st2{fill:#FFFFFF;}
	.st3{fill:none;}
</style>
<g>
	<path class="st0" d="M218.5,46.5c-2.4,0-4.3,1.9-4.3,4.3c0,2.4,1.9,4.3,4.3,4.3c2.4,0,4.3-1.9,4.3-4.3
		C222.8,48.5,220.8,46.5,218.5,46.5L218.5,46.5z M218.5,54.5c-2,0-3.6-1.7-3.6-3.7c0-2,1.6-3.7,3.6-3.7c2,0,3.6,1.7,3.6,3.7
		C222.1,52.9,220.5,54.5,218.5,54.5"/>
	<path class="st0" d="M220.5,49.7c0-1-0.6-1.4-1.6-1.4h-1.9v4.9h0.6v-2.2h1l1.4,2.2h0.7l-1.5-2.2C220,51,220.5,50.4,220.5,49.7
		L220.5,49.7z M217.5,50.6v-1.7h1c0.9,0,1.3,0.3,1.3,0.9c0,0.6-0.4,0.8-1.3,0.8H217.5"/>
</g>
<g>
	<path class="st0" d="M51.5,68.2c0,3.1-1.4,4.9-5,4.9h-3.1v-9.6c0.4,0,1.7-0.1,2.1-0.1h1.1C50.3,63.4,51.5,65,51.5,68.2 M58.9,80.1
		c0-4.7-3.8-6.4-8.5-6.5v-0.2c4-0.3,7.2-2,7.2-6c0-4.5-3.7-5.3-7.8-5.3c-5,0-10.8,0.1-15.7,0v1.3c1.1-0.1,3.6,0.1,3.6,1.4v19.6
		c0,1.3-2.6,1.5-3.6,1.5v1.2c4.8-0.1,10.5,0,15.3,0C54.4,87.1,58.9,85.3,58.9,80.1z M52.5,79.7c0,4.1-1.4,6-6.1,6h-2.9V74.4h3.1
		C51,74.4,52.5,75.9,52.5,79.7z"/>
	<path class="st0" d="M90.9,87c-2.2,0-4.4,0-6.7,0v-1.2c1,0,3.8-0.1,3.8-1.5V66.1H88L77.8,87.4h-1.1l-9.9-21.2h-0.1v18.3
		c0,1.4,2.9,1.5,4,1.5l0,1.2c-2.8-0.1-6.6-0.2-9.3,0v-1.2c1.1,0,3.6-0.1,3.6-1.5V64.8c0-1.3-2.6-1.4-3.6-1.4l0-1.3
		c3.2,0.1,6.5,0.1,9.7,0L79.6,80l8.6-17.8c3,0.1,6.3,0.1,9.4,0v1.3c-1,0-3.7,0.1-3.7,1.4v19.6c0,1.4,2.6,1.5,3.7,1.5v1.2
		C95.4,87,93.1,87,90.9,87"/>
	<path class="st0" d="M121,74.6c0,4.9-0.5,11.6-7.5,11.6c-7.1,0-7.6-6.8-7.6-11.6c0-4.9,0.5-11.6,7.6-11.6
		C120.5,63,121,69.7,121,74.6 M127.6,74.6c0-8.2-5-12.9-14.1-12.9c-9.1,0-14.2,4.6-14.2,12.9c0,8.3,5,12.9,14.2,12.9
		C122.6,87.5,127.6,82.8,127.6,74.6z"/>
</g>
<path class="st1" d="M178.8,35.4c-19.9,0-36,16.1-36,36c0,19.9,16.1,36,36,36c19.9,0,36-16.1,36-36
	C214.8,51.5,198.7,35.4,178.8,35.4z"/>
<path class="st2" d="M177.7,60.4l-6.3-8.1c-0.3-0.3-0.7-0.5-1.1-0.5c-0.4,0-0.8,0.2-1.1,0.5l-7.4,9.4v14.7l7.4-9.5
	c0.3-0.3,0.7-0.5,1.1-0.5c0.5,0,0.9,0.2,1.1,0.6l6.3,8.2c0.2,0.3,0.6,0.5,1,0.5c0.4,0,0.8-0.2,1-0.5l6.3-8.2
	c0.3-0.3,0.7-0.6,1.1-0.6c0.5,0,0.9,0.2,1.1,0.5l7.4,9.5V61.6l-7.4-9.4c-0.3-0.3-0.6-0.5-1.1-0.5c-0.5,0-0.9,0.2-1.1,0.5l-6.3,8.1
	c-0.3,0.3-0.7,0.5-1.1,0.5C178.3,60.9,177.9,60.7,177.7,60.4z M195.8,87.1h-34l0,0l0,0V76.3h34l0,0l0,0V87.1z"/>
<g>
	<polyline points="454.3,128.2 454.3,127.6 458.1,127.6 458.1,128.2 456.5,128.2 456.5,133.3 455.8,133.3 455.8,128.2 454.3,128.2 	
		"/>
	<polyline points="461.4,132.3 459.8,127.6 458.7,127.6 458.7,133.3 459.4,133.3 459.4,128.5 459.5,128.5 461,133.3 461.7,133.3 
		463.2,128.5 463.3,128.5 463.3,133.3 464,133.3 464,127.6 462.9,127.6 461.4,132.3 	"/>
</g>
<g>
	<path d="M249.7,142.7h-3.2l-2.9-11.9c-0.1-0.5-0.3-1.6-0.4-2.1h-0.1c-0.1,0.6-0.2,1.5-0.4,2.1l-2.9,11.9h-3.2l-4.5-19.4h3.6
		l2.4,12.7c0.1,0.5,0.3,1.5,0.3,2.3h0.1c0.1-0.8,0.3-1.8,0.4-2.3l3-12.7h2.6l2.8,12.7c0.1,0.6,0.3,1.5,0.4,2.3h0.1
		c0.1-0.6,0.2-1.7,0.3-2.3l2.5-12.7h3.3L249.7,142.7z"/>
	<path d="M258.6,136.4c0.3,2.6,1.7,4.2,4.3,4.2c1.4,0,2.9-0.4,3.7-0.9l0.8,2.2c-1.2,0.6-3.1,1.1-5,1.1c-4.6,0-7.1-3.2-7.1-7.9
		c0-4.8,2.4-7.9,6.5-7.9c3.9,0,6.2,2.6,6.2,7.3v0.5L258.6,136.4z M261.6,129.3c-2.2,0-3.3,2.1-3.3,5v0.3l6.3-1
		C264.6,130.9,263.7,129.3,261.6,129.3z"/>
	<path d="M271.6,128.4h-1.9l2.3-7c0.4-0.6,1-1,1.9-1c0.9,0,1.3,0.5,1.4,1L271.6,128.4z"/>
	<path d="M282,129.8c-0.5-0.2-1-0.3-1.6-0.3c-0.6,0-1.2,0.1-1.6,0.3v12.9h-3.4v-14.4c1.4-0.6,3.2-1.1,5.7-1.1c0.6,0,1.4,0.1,1.6,0.1
		L282,129.8z"/>
	<path d="M287,136.4c0.3,2.6,1.7,4.2,4.3,4.2c1.4,0,2.9-0.4,3.7-0.9l0.8,2.2c-1.2,0.6-3.1,1.1-5,1.1c-4.6,0-7.1-3.2-7.1-7.9
		c0-4.8,2.4-7.9,6.5-7.9c3.9,0,6.2,2.6,6.2,7.3v0.5L287,136.4z M290.1,129.3c-2.2,0-3.3,2.1-3.3,5v0.3l6.3-1
		C293.1,130.9,292.2,129.3,290.1,129.3z"/>
	<path d="M315.3,142.7v-10.6c0-1.5-0.6-2.6-2.7-2.6c-0.9,0-1.7,0.2-2.5,0.6v12.6h-3.4v-22.1h3.4v7.6c0.9-0.5,2.1-0.8,3.4-0.8
		c3.8,0,5.2,2.3,5.2,4.7v10.6H315.3z"/>
	<path d="M325.2,136.4c0.3,2.6,1.7,4.2,4.3,4.2c1.4,0,2.9-0.4,3.7-0.9l0.8,2.2c-1.2,0.6-3.1,1.1-5,1.1c-4.6,0-7.1-3.2-7.1-7.9
		c0-4.8,2.4-7.9,6.5-7.9c3.9,0,6.2,2.6,6.2,7.3v0.5L325.2,136.4z M328.3,129.3c-2.2,0-3.3,2.1-3.3,5v0.3l6.3-1
		C331.2,130.9,330.3,129.3,328.3,129.3z"/>
	<path d="M344.3,129.8c-0.5-0.2-1-0.3-1.5-0.3c-0.6,0-1.2,0.1-1.6,0.3v12.9h-3.4v-14.4c1.4-0.6,3.2-1.1,5.7-1.1
		c0.6,0,1.4,0.1,1.6,0.1L344.3,129.8z"/>
	<path d="M349.6,136.4c0.3,2.6,1.7,4.2,4.3,4.2c1.4,0,2.9-0.4,3.7-0.9l0.8,2.2c-1.2,0.6-3.1,1.1-5,1.1c-4.6,0-7.1-3.2-7.1-7.9
		c0-4.8,2.4-7.9,6.5-7.9c3.9,0,6.2,2.6,6.2,7.3v0.5L349.6,136.4z M352.7,129.3c-2.2,0-3.3,2.1-3.3,5v0.3l6.3-1
		C355.6,130.9,354.7,129.3,352.7,129.3z"/>
	<path d="M374.2,142.9c-2.5,0-4.1-1.5-4.1-4.2v-9h-1.7v-2.2h1.7v-3.4l3.4-1v4.3h2.5v2.2h-2.5v9c0,1.2,0.6,1.8,1.6,1.8
		c0.3,0,0.6-0.1,0.8-0.1v2.2C375.6,142.8,375,142.9,374.2,142.9z"/>
	<path d="M384.3,143.1c-4.3,0-6.4-3.3-6.4-7.9c0-4.6,2.1-7.9,6.4-7.9c4.3,0,6.4,3.3,6.4,7.9C390.7,139.7,388.6,143.1,384.3,143.1z
		 M384.3,129.4c-2.2,0-3,2.5-3,5.7c0,3.2,0.8,5.7,3,5.7c2.2,0,3-2.5,3-5.7C387.3,131.9,386.5,129.4,384.3,129.4z"/>
	<path d="M409.6,142.7v-10.6c0-1.5-0.6-2.6-2.7-2.6c-0.9,0-1.7,0.2-2.5,0.6v12.6H401v-22.1h3.4v7.6c0.9-0.5,2.1-0.8,3.4-0.8
		c3.8,0,5.2,2.3,5.2,4.7v10.6H409.6z"/>
	<path d="M419.5,136.4c0.3,2.6,1.7,4.2,4.3,4.2c1.4,0,2.9-0.4,3.7-0.9l0.8,2.2c-1.2,0.6-3.1,1.1-5,1.1c-4.6,0-7.1-3.2-7.1-7.9
		c0-4.8,2.4-7.9,6.5-7.9c3.9,0,6.2,2.6,6.2,7.3v0.5L419.5,136.4z M422.6,129.3c-2.2,0-3.3,2.1-3.3,5v0.3l6.3-1
		C425.5,130.9,424.6,129.3,422.6,129.3z"/>
	<path d="M444.9,143c-0.9,0-1.8-0.2-2.3-0.3v6.2h-3.4v-20.4c1.5-0.7,3.3-1.1,5.2-1.1c4.5,0,7.1,2.9,7.1,7.7
		C451.6,140,448.9,143,444.9,143z M444.4,129.3c-0.6,0-1.3,0.1-1.8,0.3v11c0.4,0.1,0.9,0.3,1.5,0.3c2.7,0,4-2.1,4-5.8
		C448.1,131.5,447.1,129.3,444.4,129.3z"/>
	<path d="M455.2,143c-1.1,0-2.1-0.9-2.1-2.1c0-1.1,0.9-2.1,2.1-2.1c1.1,0,2.1,0.9,2.1,2.1C457.2,142,456.3,143,455.2,143z"/>
	<polygon points="435.4,142.7 432,142.7 432,142.7 432,142.7 432,120.6 435.4,120.6 435.4,120.7 435.4,120.6 	"/>
</g>
<g>
	<path class="st0" d="M218.4,46.5c-2.4,0-4.3,1.9-4.3,4.3c0,2.4,1.9,4.3,4.3,4.3c2.4,0,4.3-1.9,4.3-4.3
		C222.7,48.5,220.8,46.5,218.4,46.5L218.4,46.5z M218.4,54.5c-2,0-3.6-1.7-3.6-3.7c0-2,1.6-3.7,3.6-3.7c2,0,3.6,1.6,3.6,3.7
		C222,52.8,220.4,54.5,218.4,54.5"/>
	<path class="st0" d="M220.4,49.7c0-1-0.6-1.4-1.6-1.4h-1.9v4.9h0.6v-2.2h1l1.4,2.2h0.7l-1.5-2.2C219.9,51,220.4,50.4,220.4,49.7
		L220.4,49.7z M217.5,50.6v-1.7h1c0.9,0,1.3,0.3,1.3,0.9c0,0.6-0.4,0.8-1.3,0.8H217.5"/>
</g>
<rect class="st3" width="589.1" height="178.1"/>
<g>
	<path class="st0" d="M243.8,87.1c-4.5,0-9.1-0.1-13.6,0v-1.2c0.9,0,3.7-0.1,3.7-1.3V64.1c0-1.3-2.7-1.4-3.7-1.3l0-1.2
		c4.7,0.1,9.5,0,14.2,0c4.5,0,8,1,8,5.7c0,3.8-2.8,5.5-6.6,5.9v0.1c4.7,0.3,8,2,8,6.7C253.8,85.3,248.9,87.1,243.8,87.1z
		 M242.1,62.8c-1,0-2.1,0-3.1,0.1v9.8h3.3c3.6,0,4.9-1.8,4.9-4.9C247.1,64.5,245.9,62.8,242.1,62.8z M242.4,74.1h-3.4v11.7h2.5
		c4.5,0,6.8-1.8,6.8-6C248.3,75.9,246.8,74.1,242.4,74.1z"/>
	<path class="st0" d="M272.5,87.2c-1.5,0-2.9-0.2-2.9-1.8c-1.8,1.5-3.5,2.1-5.9,2.1c-3.9,0-5.8-1.8-5.8-5.3c0-6,7.3-5.6,11.7-5.9
		v-2.7c0-2-1-3-3.2-3c-2.5,0-3.3,1.2-3.3,3.3c0,0.9-0.8,1.1-1.6,1.1c-1.3,0-2.2,0-2.2-1.5c0-3.4,3.9-4.1,6.9-4.1c4.7,0,8,0.6,8,5.5
		v8.3c0,2.5,0.2,2.8,3,2.8v1.2C275.6,87.1,274.1,87.2,272.5,87.2z M269.6,77.5c-3.8,0.3-6.8,0.6-6.8,4.8c0,1.7,0.6,3.5,2.9,3.5
		c3.1,0,4-2.6,4-5V77.5z"/>
	<path class="st0" d="M291.4,87.1V86c1,0,2.9-0.1,2.9-1.4v-9.3c0-2.2-0.4-4.1-3.3-4.1c-3.3,0-4.5,2.6-4.5,5.2v8.2
		c0,1.2,2,1.4,2.9,1.4l0,1.1c-3.5-0.1-7.2-0.1-10.7,0V86c1,0,3.1-0.1,3.1-1.4V72.3c0-1.3-2.1-1.4-3.1-1.4v-1.1c2.5,0,5.1,0,7.6-0.1
		v2.6h0.1c1.8-2,3.7-2.9,6.6-2.9c4.3,0,6,1.9,6,5.7v9.5c0,1.3,2.1,1.4,3.1,1.4v1.2C298.6,87,294.9,87,291.4,87.1z"/>
	<path class="st0" d="M316.4,87.1v-1.1c0.3,0,1.4,0,1.3-0.5c-0.1-0.5-1-1.2-1.4-1.8c-1.1-1.4-2.2-2.7-3.3-4.1c0,0-0.5-0.8-0.5-0.8
		l-1.6,1.4v4.4c0,1.4,2,1.3,3.1,1.3v1.2c-3.5-0.1-7.3-0.1-10.8,0v-1.2c1,0,3.1-0.1,3.1-1.4V63.2c0-1.3-2-1.4-3.1-1.4l0-1.1
		c2.5,0,5.2,0.1,7.7-0.1l0,18c0,0,6.4-6.8,6.4-7.4c0-0.3-1.5-0.4-1.8-0.4v-1h7.9v1h-0.5c-0.9,0-2.7,0-3.3,0.6
		c-1.6,1.3-4.2,4.5-4.2,4.5l7.3,8.7c0.8,0.9,2.1,1.4,3.3,1.5v1.1C322.7,86.9,319.5,87.1,316.4,87.1z"/>
	<path class="st0" d="M344.8,87.5c-6.3,0-9.5-3.4-9.5-9c0-5.6,3.2-9.2,9.5-9.2c6.4,0,9.5,3.6,9.5,9.2
		C354.3,84,351.1,87.5,344.8,87.5z M344.8,70.5c-4.7,0-4.5,4.7-4.5,7.8c0,3.1-0.2,8,4.5,8c4.7,0,4.5-4.9,4.5-8
		C349.3,75.2,349.5,70.5,344.8,70.5z"/>
	<path class="st0" d="M370.9,65.7c-3.4,0-0.3-4.1-3.7-4.1c-2.1,0-2.2,1.9-2.2,3.3v4.8h4.1V71H365v13.6c0,1.4,2.4,1.4,3.4,1.4l0,1.2
		c-3.7-0.1-7.5-0.1-11.1,0v-1.2c1,0,3.1,0,3.1-1.4V71h-3.1v-1.3h3.1V67c0-4.2,2.4-6.5,7.1-6.5c2.5,0,5.6,0.8,5.6,3.6
		C373.1,65.5,372.3,65.7,370.9,65.7z"/>
	<path class="st0" d="M406.3,87.1v-1.2c1,0,4,0,4-1.3V65.1l-10.7,22.3h-0.9l-10.5-22.2v19.4c0,1.3,3,1.3,4,1.3v1.2
		c-3.1-0.1-6.3-0.1-9.4,0v-1.2c1,0,3.7,0,3.7-1.3V64.1c0-1.3-2.7-1.3-3.7-1.3l0-1.2c2.9,0.1,6,0.1,9,0l9.2,19.2l9.3-19.2
		c2.9,0.1,5.9,0.1,8.8,0v1.2c-1,0-3.8,0-3.8,1.3v20.4c0,1.3,2.8,1.3,3.8,1.3v1.2C415.3,87,410.2,87,406.3,87.1z"/>
	<path class="st0" d="M430.8,87.5c-6.3,0-9.5-3.4-9.5-9c0-5.6,3.2-9.2,9.5-9.2c6.4,0,9.5,3.6,9.5,9.2
		C440.4,84,437.1,87.5,430.8,87.5z M430.8,70.5c-4.7,0-4.5,4.7-4.5,7.8c0,3.1-0.2,8,4.5,8c4.7,0,4.5-4.9,4.5-8
		C435.3,75.2,435.5,70.5,430.8,70.5z"/>
	<path class="st0" d="M455.9,87.1V86c1,0,2.9-0.1,2.9-1.4v-9.3c0-2.2-0.4-4.1-3.3-4.1c-3.3,0-4.5,2.6-4.5,5.2v8.2
		c0,1.2,2,1.4,2.9,1.4l0,1.1c-3.5-0.1-7.2-0.1-10.7,0V86c1,0,3.1-0.1,3.1-1.4V72.3c0-1.3-2.1-1.4-3.1-1.4v-1.1c2.5,0,5.1,0,7.6-0.1
		v2.6h0.1c1.8-2,3.7-2.9,6.6-2.9c4.3,0,6,1.9,6,5.7v9.5c0,1.3,2.1,1.4,3.1,1.4v1.2C463.1,87,459.4,87,455.9,87.1z"/>
	<path class="st0" d="M475.6,87.4c-3.7,0-4.7-1.7-4.7-4.8V71H468v-1.3h2.9v-3.7l4.6-0.4v4.1h4.2V71h-4.2v12.2c0,1.4,0.4,2.4,2.1,2.4
		c0.8,0,1.8-0.6,2.4-1l0.8,1.1C479.2,86.6,477.5,87.4,475.6,87.4z"/>
	<path class="st0" d="M497.2,74.9c-3.5,0-0.7-3.8-3.1-3.8c-2.6,0-3.2,4.4-3.2,6.1v7.3c0,1.4,2.3,1.4,3.3,1.4v1.2
		c-3.7-0.1-7.4-0.1-11.1,0v-1.2c1,0,3.1-0.1,3.1-1.4V72.2c0-1.3-2.1-1.4-3.1-1.4l0-1.1c2.5,0,5.1,0,7.7-0.1v2.8l0.1,0
		c1-1.7,2.6-3,4.8-3c2.3,0,3.7,1.3,3.7,3.4C499.3,74.1,498.9,74.9,497.2,74.9z"/>
	<path class="st0" d="M507,78v0.8c0,3.2,0.3,7.3,4.9,7.3c3.5,0,5.1-1.7,5.7-4.7h1.6c-0.9,4.4-3.1,6-8,6c-6.6,0-9.2-3.7-9.2-9.3
		c0-5.4,3.3-8.8,9.3-8.8c5.9,0,8.4,3.3,8.4,8.4V78H507z M514.7,75.6c0-2.4-0.5-5.1-3.7-5.1c-3.7,0-3.9,3.8-3.9,6.3h7.7V75.6z"/>
	<path class="st0" d="M538,87.2c-1.5,0-2.9-0.2-2.9-1.8c-1.8,1.5-3.5,2.1-5.9,2.1c-3.9,0-5.8-1.8-5.8-5.3c0-6,7.3-5.6,11.7-5.9v-2.7
		c0-2-1-3-3.2-3c-2.5,0-3.3,1.2-3.3,3.3c0,0.9-0.8,1.1-1.6,1.1c-1.3,0-2.2,0-2.2-1.5c0-3.4,3.9-4.1,6.9-4.1c4.7,0,8,0.6,8,5.5v8.3
		c0,2.5,0.2,2.8,3,2.8v1.2C541,87.1,539.5,87.2,538,87.2z M535,77.5c-3.8,0.3-6.8,0.6-6.8,4.8c0,1.7,0.6,3.5,2.9,3.5
		c3.1,0,4-2.6,4-5V77.5z"/>
	<path class="st0" d="M544.2,87.1v-1.2c1,0,3.1-0.1,3.1-1.4V63.2c0-1.3-2.1-1.4-3.1-1.4l0-1.1c2.5,0,5.2,0.1,7.7-0.1v24
		c0,1.3,2.2,1.4,3.2,1.4v1.2C551.5,87,547.7,87,544.2,87.1z"/>
</g>
</svg>
