<?xml version="1.0" encoding="utf-8"?>
<!-- Generator: Adobe Illustrator 23.0.3, SVG Export Plug-In . SVG Version: 6.00 Build 0)  -->
<svg version="1.1" id="Layer_1" xmlns="http://www.w3.org/2000/svg" xmlns:xlink="http://www.w3.org/1999/xlink" x="0px" y="0px"
	 viewBox="0 0 274.5 139.9" style="enable-background:new 0 0 274.5 139.9;" xml:space="preserve">
<style type="text/css">
	.st0{fill:none;}
	.st1{fill:#FFFFFF;}
	.st2{fill:#ED1C24;}
</style>
<title>BMO-MB</title>
<rect class="st0" width="274.5" height="139.9"/>
<path class="st1" d="M56,62c0,3.8-1.7,5.8-6.3,5.8h-3.9V56.3c0.5,0,2.1-0.1,2.6-0.1h1.3C54.4,56.3,56,58.2,56,62z M65.2,77
	c0-5.9-4.8-8.1-10.7-8.2v-0.2c5-0.4,9.1-2.5,9.1-7.5c0-5.6-4.6-6.7-9.8-6.7c-6.2,0-13.6,0.2-19.8,0v1.9c1.3-0.1,4.5,0.1,4.5,1.7
	v23.9c0,1.6-3.3,1.8-4.5,1.8v1.9c6-0.2,13.2,0,19.2,0C59.5,85.6,65.2,83.5,65.2,77z M57.2,76.4c0,4.9-1.7,7.2-7.7,7.2h-3.7V69.9h3.9
	C55.2,69.9,57.2,71.7,57.2,76.4L57.2,76.4z"/>
<path class="st1" d="M105.4,85.6c-2.8,0-5.6,0-8.4,0.1v-1.9c1.3,0,4.8-0.1,4.8-1.8V59.7h-0.1L89.1,86h-1.5L75.3,59.7h-0.1v22.2
	c0,1.8,3.5,1.8,4.8,1.8l0.1,1.9c-3.5-0.1-8.3-0.2-11.7,0v-1.9c1.3,0,4.3-0.1,4.3-1.8V58c0-1.6-3.1-1.8-4.3-1.8v-1.9
	c4,0.2,8.2,0.2,12.2,0l10.5,22.2l10.8-22.1c3.8,0.2,8.1,0.1,12,0v1.9c-1.3,0-4.6,0.1-4.6,1.8v23.9c0,1.7,3.3,1.8,4.6,1.8v1.9
	C111.1,85.5,108.2,85.6,105.4,85.6z"/>
<path class="st1" d="M143.3,69.9c0,6-0.6,14.3-9.4,14.3s-9.5-8.3-9.5-14.3s0.6-14.2,9.5-14.2S143.3,64,143.3,69.9z M151.6,69.9
	c0-10.3-6.3-16.2-17.7-16.2S116,59.5,116,69.9s6.3,16.2,17.8,16.2S151.6,80.3,151.6,69.9L151.6,69.9z"/>
<path class="st2" d="M204.6,34c-19.9,0-36,16.1-36,36s16.1,36,36,36s36-16.1,36-36S224.4,34,204.6,34z"/>
<rect class="st0" width="34" height="34"/>
<rect x="240.6" class="st0" width="34" height="34"/>
<rect x="240.6" y="106" class="st0" width="34" height="34"/>
<rect y="106" class="st0" width="34" height="34"/>
<path class="st1" d="M203.5,59l-6.3-8.2c-0.3-0.3-0.7-0.6-1.1-0.5c-0.4,0-0.8,0.2-1.1,0.5l-7.4,9.4v14.7l7.4-9.5
	c0.3-0.3,0.7-0.5,1.1-0.6c0.4,0,0.9,0.2,1.1,0.6l6.3,8.2c0.2,0.3,0.6,0.5,1,0.5c0.4,0,0.8-0.2,1-0.5l6.3-8.2
	c0.3-0.4,0.7-0.6,1.1-0.6c0.4,0,0.9,0.2,1.1,0.6l7.4,9.5V60.2l-7.4-9.4c-0.3-0.3-0.7-0.5-1.1-0.5c-0.4,0-0.8,0.2-1.1,0.5l-6.2,8.2
	c-0.3,0.3-0.7,0.5-1.1,0.5C204.1,59.5,203.7,59.3,203.5,59z M221.6,85.7h-34l0,0l0,0V74.9h34l0,0l0,0V85.7z"/>
</svg>
