<svg xmlns="http://www.w3.org/2000/svg" width="95" height="72" viewBox="0 0 95 72">
  <g fill="none" fill-rule="evenodd">
    <rect width="95" height="72" fill="#C4B0B0" opacity="0"/>
    <g transform="translate(16 7)">
      <path fill="#BEE5FE" d="M4,26 C2.23199286,39.648125 5.73199286,48.7618744 14.5,53.3412482 C23.2680071,57.9206219 34.2124401,59.6401972 47.333299,58.4999742 C22.3936553,58.4999742 9.49684014,58.4999742 8.64285346,58.4999742 C7.36187344,58.4999742 4,58.6901189 4,53.3412482 C4,49.7753343 4,40.6615849 4,26 Z"/>
      <rect width="19" height="5" x="5" y="26" fill="#BEE5FE"/>
      <rect width="19" height="5" x="40" y="26" fill="#BEE5FE"/>
      <rect width="14" height="45" x="25" y="13" fill="#BEE5FE"/>
      <polyline stroke="#005587" stroke-linecap="round" stroke-linejoin="round" stroke-width="3" points="0 25 0 12 64 12"/>
      <path stroke="#0075BB" stroke-linecap="round" stroke-linejoin="round" stroke-width="3" d="M25,26 L25,57.5"/>
      <path stroke="#005587" stroke-linecap="round" stroke-linejoin="round" stroke-width="3" d="M25,12.406732 L25,24.515381"/>
      <path stroke="#0075BB" stroke-linecap="round" stroke-linejoin="round" stroke-width="3" d="M39,12.406732 L39,24.515381"/>
      <path stroke="#70C0EB" stroke-linecap="round" stroke-linejoin="round" stroke-width="3" d="M39,26 L39,57.5"/>
      <g transform="translate(15)">
        <path fill="#FFF" d="M34.0262892,1.01753909 C32.3247091,0.815583251 24.713241,2.36893516 21.1546925,5.28724733 C20.6875016,4.76879352 20.0069721,4.43873136 19.2500306,4.43873136 L16.7740726,4.43873136 C16.0114899,4.43873136 15.3263449,4.77331492 14.859154,5.29880202 C11.3062466,2.37295418 3.67734223,0.815080874 1.97371085,1.01753909 C0.185462009,1.23004487 -1.38637128,11.7412939 1.97371085,15.8291414 C1.97371085,15.8291414 10.2739137,17.2508703 15.0478766,11.8920072 C15.5027595,12.3054641 16.1084153,12.5611743 16.7740726,12.5611743 L19.2500306,12.5611743 C19.909021,12.5611743 20.5095485,12.3104878 20.9628929,11.9040643 C25.7383943,17.2483584 34.0262892,15.8291414 34.0262892,15.8291414 C37.3863713,11.7412939 35.814538,1.23004487 34.0262892,1.01753909"/>
        <path stroke="#70C0EB" stroke-linecap="round" stroke-linejoin="round" stroke-width="3" d="M21.1546925,5.28724733 C20.6875016,4.76879352 20.0069721,4.43873136 19.2500306,4.43873136 L16.7740726,4.43873136 C16.0114899,4.43873136 15.3263449,4.77331492 14.859154,5.29880202 C11.3062466,2.37295418 3.67734223,0.815080874 1.97371085,1.01753909 C0.185462009,1.23004487 -1.38637128,11.7412939 1.97371085,15.8291414 C1.97371085,15.8291414 10.2739137,17.2508703 15.0478766,11.8920072 C15.5027595,12.3054641 16.1084153,12.5611743 16.7740726,12.5611743 L19.2500306,12.5611743 C19.909021,12.5611743 20.5095485,12.3104878 20.9628929,11.9040643"/>
        <path fill="#C1E7FF" d="M3 16.5C3 16.5 8.48917523 15.821522 9.5 15.5 12.5787808 14.5207047 13.9901257 13.0041604 14 13-1 14 6.4972387 1.5045215 6.5 1.5 5.54665997 1.40906763 3.10414836.978139479 2.65681719 1.0173258.249650882 1.22983625-1.52301511 12.4120626 3 16.5zM24 4.5C22.8170856 5.21262713 22.7522882 5.55449775 22 6.51794919L22 12.9484512C22.5007991 13.7525194 33.5 17.5 35.5 12.9484512 32 14.5 22 12 25 4L24 4.5z"/>
        <path fill="#C1E7FF" d="M23,10.0672769 C19.7975979,11.7189931 16.7917292,10.8643021 15,10 C15.1605023,11.6832952 16.3058551,13 17.6859561,13 L20.3222328,13 C21.6832264,13 22.815477,11.7176201 23,10.0672769"/>
        <path fill="#C1E7FF" d="M17,5.5 C16.7367397,5.08415015 16.4034063,5.25081682 16,6 C15.7867868,6.39596741 16,9 18,10.5 C20,12 21.9341258,12.064938 20.5,12.5 C20.1411994,12.6088472 17.8078661,12.6088472 13.5,12.5 C13.5,12.5 15.5,7 13,5 L17,5.5 Z"/>
        <path stroke="#70C0EB" stroke-linecap="round" stroke-linejoin="round" stroke-width="3" d="M21.1546925,5.28724733 C20.6875016,4.76879352 20.0069721,4.43873136 19.2500306,4.43873136 L16.7740726,4.43873136 C16.0114899,4.43873136 15.3263449,4.77331492 14.859154,5.29880202 C11.3062466,2.37295418 3.67734223,0.815080874 1.97371085,1.01753909 C0.185462009,1.23004487 -1.38637128,11.7412939 1.97371085,15.8291414"/>
        <path stroke="#0079C1" stroke-linecap="round" stroke-linejoin="round" stroke-width="3" d="M2 16C2.27107182 16.5647996 10.6986757 16.7282101 15 12 17.5 13.5 21.2864181 12.7135819 21.5 12.5M2 1C.187932299 1.20086151-1.40483727 12.1361463 2 16"/>
        <path stroke="#005587" stroke-linecap="round" stroke-width="3" d="M21,12 C25.7528363,17.2195724 34,15.8331158 34,15.8331158"/>
        <g transform="translate(34 1)">
          <path fill="#FFF" d="M0.15726,14.6879032 C4.08846,10.7506452 2.24946,0.626612903 0.15726,0.421935484"/>
          <path stroke="#005587" stroke-linecap="round" stroke-width="3" d="M0.15726,14.6879032 C4.08846,10.7506452 2.0922,0.204677419 0,3.33066907e-16"/>
        </g>
        <g transform="translate(21)">
          <path fill="#FFF" d="M12.63105,1.4362 C10.97205,1.2352 3.55105,2.7812 0.08155,5.6857"/>
          <path stroke="#005587" stroke-linecap="round" stroke-width="3" d="M12.5,1 C10.841,0.799 3.4695,2.5955 -1.11022302e-16,5.5"/>
        </g>
      </g>
      <rect width="56" height="33" x="4" y="25" stroke="#005587" stroke-linecap="round" stroke-linejoin="round" stroke-width="3"/>
      <polyline stroke="#0079C1" stroke-linecap="round" stroke-linejoin="round" stroke-width="3" points="0 25 64 25 64 13"/>
    </g>
  </g>
</svg>
