<svg xmlns="http://www.w3.org/2000/svg" width="95" height="72" viewBox="0 0 95 72">
  <g fill="none" fill-rule="evenodd">
    <g transform="translate(12 4)">
      <path fill="#FFF" d="M0,27.3292933 L0.398386779,38.2243062 L9.56128271,40.9480594 C11.6860122,46.3955659 15.2714932,50.1569394 20.3177258,52.23218 C20.3177258,54.0480155 20.1849302,56.9014712 19.919339,60.7925473 L27.090301,54.9559332 C33.1988983,56.7717687 38.7763132,56.7717687 43.8225457,54.9559332 C45.9472752,56.7717687 48.4703915,58.7173067 51.3918946,60.7925473 L51.7902813,51.8430724 C58.6956522,45.8767558 62.015542,39.0025214 61.7499508,31.2203693 C61.351564,22.660002 58.5628566,13.7105271 50.1967342,8.65212827 C43.8225457,3.98283702 31.8709424,3.98283702 22.3096596,7.87391306 C19.3009533,4.66419878 16.6377266,1.17041823 14.1326022,0.341901577 C12.4625193,-0.21044286 11.5901364,0.136974644 11.5154536,1.38415409 C12.5623131,10.5050216 13.0857428,15.1951579 13.0857428,15.454563 C11.3409771,16.4968155 9.76777027,19.5471412 8.36612237,24.6055401 L0,27.3292933 Z"/>
      <path fill="#001928" d="M14.3382353,24.3695773 C14.3382353,24.979049 13.8441857,25.4733037 13.2349669,25.4733037 C12.6264025,25.4733037 12.1323529,24.979049 12.1323529,24.3695773 C12.1323529,23.7601056 12.6264025,23.2658509 13.2349669,23.2658509 C13.8441857,23.2658509 14.3382353,23.7601056 14.3382353,24.3695773"/>
      <path fill="#BEE5FE" d="M60.6205079 32.5251981C60.2100566 25.1354324 58.0381133 19.5698881 54.8491704 15.5397664 55.2981649 17.6781835 55.542948 19.9000475 55.542948 22.1835896 55.542948 38.8054832 42.9866544 52.2796152 27.4976963 52.2796152 22.7406536 52.2796152 18.26288 51.0046919 14.3382353 48.7617848 15.575675 50.3371168 17.2688711 52.0046033 19.5794347 53.4943115 20.1379731 53.8542216 15.819587 62.1555659 16.3970588 62.4726641L20.8986942 63 27.627526 57.0578563C32.9586596 58.4945939 38.5893482 58.3893783 43.6621747 56.8060644L50.8237723 62.7061218C50.8237723 62.7061218 52.9024279 60.0838558 52.9411765 58.7813126 52.979925 57.4787693 51.1104797 53.0683696 51.1104797 53.0683696 56.7972926 48.8793361 60.6685178 42.0976441 60.6617559 32.8800288L60.6205079 32.5251981zM1.10294118 34.9741816L1.10294118 39.2776968 10.6323529 42.0162974C11.0294118 42.407526 8.64705882 33.8004957 11.0294118 29.8882091 11.0294118 29.8882091 4.83436076 33.8499078 1.10294118 34.9741816z"/>
      <path stroke="#73BEE8" stroke-linecap="round" stroke-linejoin="round" stroke-width="3" d="M61.7647059,31.5477218 C60.8595991,15.8154732 51.8576997,8.18129689 41.8696702,6.03631668 C31.8816406,3.89133647 25.6162222,6.36948439 21.2087216,9.08898186 M10.9405847,4.50250278 L13.6091725,15.6019482 C8.48392763,21.0459036 8.27199699,25.3569369 8.27199699,25.3569369 M0,28.0031545 L0.416889258,39.4440065 L9.54660823,42.0291991"/>
      <path stroke="#005585" stroke-linecap="round" stroke-linejoin="round" stroke-width="3" d="M51.8382353,50.85901 C58.3695969,46.4545759 61.7730039,40.6803567 61.764721,30.9919355"/>
      <path stroke="#0777BC" stroke-linecap="round" stroke-linejoin="round" stroke-width="3" d="M8.82352941,25.4733037 L0,27.6807564"/>
      <path stroke="#005585" stroke-linecap="round" stroke-linejoin="round" stroke-width="3" d="M9.92647059,42.0291991 C9.92647059,42.0291991 11.2616332,47.8120809 18.791563,52.3103467 C19.380585,52.6606018 19.9792971,52.9915894 20.5883915,53.300557 C19.3516564,56.0805931 18.2152406,58.6716099 17.1791444,61.0736073 C16.3107279,63.0868702 20.4121441,63.6745856 23.3957219,62.1030348 C25.3847738,61.0553343 27.1116009,59.3396218 28.5762032,56.9558975 C34.1930228,58.3582939 38.7728435,57.2028986 44.1176471,55.6580605"/>
      <path stroke="#0777BC" stroke-linecap="round" stroke-linejoin="round" stroke-width="3" d="M44.1176471,55.474593 C48.4521167,60.491531 50.6193515,63 50.6193515,63 C50.6193515,63 54.9538212,61.9966124 53.8702037,56.9796744 C53.1477921,53.635049 52.4704693,51.5948276 51.8382353,50.85901"/>
      <path stroke="#005585" stroke-linecap="round" stroke-width="3" d="M61.7647059,31.246271 C61.7647059,34.1259846 63.9893252,37.0884826 67.3443433,37.5421265 C71.3116108,38.0785549 74.5551632,35.5636467 74.9529398,32.0215546 C75.4601795,27.5047231 71.7631073,25.2106047 68.8660626,25.4972424 C63.7936649,25.9991126 64.8081445,33.025295 68.132436,33.025295 C70.9673994,33.025295 70.8950216,30.0140739 69.8805421,30.0140739"/>
      <path fill="#BEE5FE" d="M12.218549,0.639460512 L28.6764706,14.43604 C28.6764706,15.1354375 29.1592456,22.9039135 22.8043723,27.6807564 C22.8043723,27.6807564 14.740034,9.54674769 12.218549,1.86772278 C11.857057,0.76682154 12.218549,0.639460512 12.218549,0.639460512 Z"/>
      <path stroke="#005585" stroke-linecap="round" stroke-linejoin="round" stroke-width="3" d="M29.7794118,14.43604 C29.2279412,20.1801643 27.0220588,24.227161 23.1617647,26.57703"/>
      <path stroke="#0777BC" stroke-linecap="round" stroke-linejoin="round" stroke-width="3" d="M11.0294118,3.9506396 C10.4130018,0.871688397 11.2783959,-0.37126877 13.625594,0.221768101 C15.0142107,0.572612306 20.3988166,5.31070295 29.7794118,14.43604"/>
      <path fill="#001928" d="M12.1217283,3.24716407 C12.2055547,3.85066954 11.7842168,4.40854412 11.1805198,4.49171011 C10.5768229,4.57634808 10.0209216,4.15389424 9.93709525,3.55038877 C9.85326887,2.94614731 10.2746067,2.38900872 10.8783037,2.30584272 C11.4812653,2.22120476 12.0379019,2.64365859 12.1217283,3.24716407"/>
    </g>
    <path stroke="#005585" stroke-linecap="round" stroke-linejoin="round" stroke-width="3" d="M45,15.0413223 C51.8686869,14.7107438 57.5353535,16.3636364 62,20"/>
  </g>
</svg>
