<?xml version="1.0" encoding="UTF-8"?>
<svg width="80px" height="80px" viewBox="0 0 80 80" version="1.1" xmlns="http://www.w3.org/2000/svg" xmlns:xlink="http://www.w3.org/1999/xlink">
    <!-- Generator: Sketch 60 (88103) - https://sketch.com -->
    <title>loader</title>
    <desc>Created with Sketch.</desc>
    <g id="Page-1" stroke="none" stroke-width="1" fill="none" fill-rule="evenodd">
        <g id="Client-Profile---Loading---Desktop" transform="translate(-680.000000, -665.000000)">
            <g id="loader" transform="translate(680.000000, 665.000000)">
                <path d="M0,40 C0,62.09139 17.90861,80 40,80 C62.09139,80 80,62.09139 80,40 C80,17.90861 62.09139,0 40,0 C38.7005065,0 37.6470588,1.05344765 37.6470588,2.35294118 C37.6470588,3.65243471 38.7005065,4.70588235 40,4.70588235 C59.4924029,4.70588235 75.2941176,20.5075971 75.2941176,40 C75.2941176,59.4924029 59.4924029,75.2941176 40,75.2941176 C20.5075971,75.2941176 4.70588235,59.4924029 4.70588235,40 C4.70588235,38.7005065 3.65243471,37.6470588 2.35294118,37.6470588 C1.05344765,37.6470588 0,38.7005065 0,40 Z" id="Oval" fill="#000000" fill-rule="nonzero"></path>
                <circle id="Oval-4" fill="#000000" cx="2.35294118" cy="40" r="2.35294118"></circle>
            </g>
        </g>
    </g>
</svg>