<?xml version="1.0" encoding="utf-8"?>
<!-- Generator: Adobe Illustrator 23.0.3, SVG Export Plug-In . SVG Version: 6.00 Build 0)  -->
<svg version="1.1" id="Layer_1" xmlns="http://www.w3.org/2000/svg" xmlns:xlink="http://www.w3.org/1999/xlink" x="0px" y="0px"
	 viewBox="0 0 193 115" style="enable-background:new 0 0 193 115;" xml:space="preserve">
<style type="text/css">
	.st0{fill-rule:evenodd;clip-rule:evenodd;fill:#0075BE;}
	.st1{filter:url(#Adobe_OpacityMaskFilter);}
	.st2{fill-rule:evenodd;clip-rule:evenodd;fill:#FFFFFF;}
	.st3{mask:url(#mask-3_1_);fill-rule:evenodd;clip-rule:evenodd;fill:#005587;fill-opacity:0.1318;}
	.st4{filter:url(#Adobe_OpacityMaskFilter_1_);}
	.st5{mask:url(#mask-3_2_);fill-rule:evenodd;clip-rule:evenodd;fill:#005587;fill-opacity:0.2303;}
	.st6{filter:url(#Adobe_OpacityMaskFilter_2_);}
	.st7{mask:url(#mask-3_3_);fill-rule:evenodd;clip-rule:evenodd;fill:#73C3EB;fill-opacity:0.1399;}
</style>
<title>Card</title>
<g id="Symbols">
	<g id="SelectedCard_Chequing" transform="translate(5.000000, 5.000000)">
		<g id="SelectedCard-Copy-7">
			<g id="Card">
				<g id="Mask">
					<path class="st0" d="M-1-5h185c2.2,0,4,1.8,4,4v107c0,2.2-1.8,4-4,4H-1c-2.2,0-4-1.8-4-4V-1C-5-3.2-3.2-5-1-5z"/>
				</g>
				<defs>
					<filter id="Adobe_OpacityMaskFilter" filterUnits="userSpaceOnUse" x="-128.3" y="-68.9" width="207" height="148.5">
						<feColorMatrix  type="matrix" values="1 0 0 0 0  0 1 0 0 0  0 0 1 0 0  0 0 0 1 0"/>
					</filter>
				</defs>
				<mask maskUnits="userSpaceOnUse" x="-128.3" y="-68.9" width="207" height="148.5" id="mask-3_1_">
					<g class="st1">
						<path id="path-2_1_" class="st2" d="M-1-5h185c2.2,0,4,1.8,4,4v107c0,2.2-1.8,4-4,4H-1c-2.2,0-4-1.8-4-4V-1C-5-3.2-3.2-5-1-5z
							"/>
					</g>
				</mask>
				<path id="Rectangle" class="st3" d="M-87.8-68.9h126c22.4,0,40.5,18.1,40.5,40.5v67.5c0,22.4-18.1,40.5-40.5,40.5h-126
					c-22.4,0-40.5-18.1-40.5-40.5v-67.5C-128.3-50.8-110.1-68.9-87.8-68.9z"/>
				<defs>
					<filter id="Adobe_OpacityMaskFilter_1_" filterUnits="userSpaceOnUse" x="-43.4" y="-86.3" width="207" height="148.5">
						<feColorMatrix  type="matrix" values="1 0 0 0 0  0 1 0 0 0  0 0 1 0 0  0 0 0 1 0"/>
					</filter>
				</defs>
				<mask maskUnits="userSpaceOnUse" x="-43.4" y="-86.3" width="207" height="148.5" id="mask-3_2_">
					<g class="st4">
						<path id="path-2_2_" class="st2" d="M-1-5h185c2.2,0,4,1.8,4,4v107c0,2.2-1.8,4-4,4H-1c-2.2,0-4-1.8-4-4V-1C-5-3.2-3.2-5-1-5z
							"/>
					</g>
				</mask>
				<path id="Rectangle-Copy-2" class="st5" d="M-2.9-86.3h126c22.4,0,40.5,18.1,40.5,40.5v67.5c0,22.4-18.1,40.5-40.5,40.5h-126
					c-22.4,0-40.5-18.1-40.5-40.5v-67.5C-43.4-68.2-25.3-86.3-2.9-86.3z"/>
				<defs>
					<filter id="Adobe_OpacityMaskFilter_2_" filterUnits="userSpaceOnUse" x="108.9" y="73.8" width="129.1" height="94">
						<feColorMatrix  type="matrix" values="1 0 0 0 0  0 1 0 0 0  0 0 1 0 0  0 0 0 1 0"/>
					</filter>
				</defs>
				<mask maskUnits="userSpaceOnUse" x="108.9" y="73.8" width="129.1" height="94" id="mask-3_3_">
					<g class="st6">
						<path id="path-2_3_" class="st2" d="M-1-5h185c2.2,0,4,1.8,4,4v107c0,2.2-1.8,4-4,4H-1c-2.2,0-4-1.8-4-4V-1C-5-3.2-3.2-5-1-5z
							"/>
					</g>
				</mask>
				<path id="Rectangle-Copy" class="st7" d="M149.4,73.8h48.1c22.4,0,40.5,18.1,40.5,40.5v13c0,22.4-18.1,40.5-40.5,40.5h-48.1
					c-22.4,0-40.5-18.1-40.5-40.5v-13C108.9,91.9,127,73.8,149.4,73.8z"/>
			</g>
		</g>
	</g>
</g>
</svg>
