<svg xmlns="http://www.w3.org/2000/svg" viewBox="0 0 48 48"><defs><style>.cls-1{fill:#0075be;}.cls-2{fill:none;}</style></defs><title>48-alert</title><g id="Layer_1" data-name="Layer 1"><path class="cls-1" d="M38,33.49l-.69-1.17A6.52,6.52,0,0,1,36.35,29V23.49a11.43,11.43,0,0,0-8.2-10.61v-3A4,4,0,0,0,24,6a4,4,0,0,0-4.15,3.86v3a11.43,11.43,0,0,0-8.2,10.61V29a6.52,6.52,0,0,1-.91,3.34l-.69,1.17a2.86,2.86,0,0,0,0,3.07,3.13,3.13,0,0,0,2.59,1.33h6.59a4.77,4.77,0,0,0,9.44,0h6.59a3.13,3.13,0,0,0,2.59-1.33A2.86,2.86,0,0,0,38,33.49ZM24,8a2,2,0,0,1,2.15,1.86v2.51a12.67,12.67,0,0,0-4.3,0V9.86A2,2,0,0,1,24,8ZM13.65,23.49c0-4.08,3.06-7.74,7.44-8.9h0a10.54,10.54,0,0,1,5.76,0h0c4.39,1.15,7.45,4.81,7.45,8.9V29a7.83,7.83,0,0,0,.14,1.45h-21A7.83,7.83,0,0,0,13.65,29ZM24,40a2.78,2.78,0,0,1-2.69-2.11h5.38A2.78,2.78,0,0,1,24,40Zm12.25-4.57a1.14,1.14,0,0,1-.94.46H12.69a1.14,1.14,0,0,1-.94-.46.87.87,0,0,1,0-.92l.7-1.18a7.56,7.56,0,0,0,.45-.9H35.08a7.56,7.56,0,0,0,.45.9l.7,1.18A.87.87,0,0,1,36.25,35.43Z"/><path class="cls-1" d="M30.29,23.2a1,1,0,0,0,.94.65,1,1,0,0,0,.35-.06,1,1,0,0,0,.58-1.29,11.35,11.35,0,0,0-3.77-5,1,1,0,0,0-1.21,1.59A9.38,9.38,0,0,1,30.29,23.2Z"/></g><g id="transparent_bounding_box" data-name="transparent bounding box"><rect class="cls-2" width="48" height="48"/></g></svg>