<svg xmlns="http://www.w3.org/2000/svg" viewBox="0 0 48 48"><defs><style>.cls-1{fill:#0075be;}.cls-2{fill:none;}</style></defs><title>48-camera</title><g id="Layer_1" data-name="Layer 1"><path class="cls-1" d="M41,13.32H34.28L29.21,7.86a1,1,0,0,0-.74-.32H19.53a1,1,0,0,0-.74.32l-5.07,5.46H7a1,1,0,0,0-1,1V35.54a1,1,0,0,0,1,1H41a1,1,0,0,0,1-1V14.32A1,1,0,0,0,41,13.32ZM40,34.54H8V15.32h6.16a1,1,0,0,0,.73-.32L20,9.54H28L33.11,15a1,1,0,0,0,.73.32H40Z"/><path class="cls-1" d="M24,16.43a7,7,0,1,0,7,7A7,7,0,0,0,24,16.43Zm0,12a5,5,0,1,1,5-5A5,5,0,0,1,24,28.43Z"/></g><g id="transparent_bounding_box" data-name="transparent bounding box"><rect class="cls-2" width="48" height="48"/></g></svg>