<svg xmlns="http://www.w3.org/2000/svg" viewBox="0 0 48 48"><defs><style>.cls-1{fill:#0075be;}.cls-2{fill:none;}</style></defs><title>48-chat</title><g id="Layer_1" data-name="Layer 1"><path class="cls-1" d="M41,7.21H17a1,1,0,0,0-1,1V24.44a1,1,0,0,0,1,1H29.29l6.06,6.06a1,1,0,0,0,.71.29,1,1,0,0,0,.38-.07,1,1,0,0,0,.62-.93V25.44H41a1,1,0,0,0,1-1V8.21A1,1,0,0,0,41,7.21ZM40,23.44H36.06a1,1,0,0,0-1,1v3.94l-4.65-4.65a1,1,0,0,0-.7-.29H18V9.21H40Z"/><path class="cls-1" d="M27.19,27.29a1,1,0,0,0-1,1v5.16H16.5a1,1,0,0,0-.71.29l-3.63,3.64V34.45a1,1,0,0,0-1-1H8V21.79h6a1,1,0,0,0,0-2H7a1,1,0,0,0-1,1V34.45a1,1,0,0,0,1,1h3.16v4.34a1,1,0,0,0,.61.93,1.07,1.07,0,0,0,.39.07,1,1,0,0,0,.7-.29l5.05-5H27.19a1,1,0,0,0,1-1V28.29A1,1,0,0,0,27.19,27.29Z"/></g><g id="transparent_bounding_box" data-name="transparent bounding box"><rect class="cls-2" width="48" height="48"/></g></svg>