<svg xmlns="http://www.w3.org/2000/svg" viewBox="0 0 48 48"><defs><style>.cls-1{fill:#0075be;}.cls-2{fill:none;}</style></defs><title>48-close</title><g id="Layer_1" data-name="Layer 1"><path class="cls-1" d="M25.41,24,41.71,7.71a1,1,0,1,0-1.42-1.42L24,22.59,7.71,6.29A1,1,0,0,0,6.29,7.71L22.59,24,6.29,40.29a1,1,0,0,0,0,1.42,1,1,0,0,0,1.42,0L24,25.41l16.29,16.3a1,1,0,0,0,1.42,0,1,1,0,0,0,0-1.42Z"/></g><g id="transparent_bounding_box" data-name="transparent bounding box"><rect class="cls-2" width="48" height="48"/></g></svg>