<svg xmlns="http://www.w3.org/2000/svg" viewBox="0 0 48 48"><defs><style>.cls-1{fill:#0075be;}.cls-2{fill:none;}</style></defs><title>48-download</title><g id="Layer_1" data-name="Layer 1"><path class="cls-1" d="M39.38,39.34H8.62a1,1,0,1,0,0,2H39.38a1,1,0,0,0,0-2Z"/><path class="cls-1" d="M23.27,33.36a1,1,0,0,0,.71.29h0a1,1,0,0,0,.74-.35l7.66-7.63a1,1,0,0,0,0-1.42,1,1,0,0,0-1.41,0l-6,6V7.66a1,1,0,0,0-2,0V30.25l-6-6a1,1,0,1,0-1.42,1.42Z"/></g><g id="transparent_bounding_box" data-name="transparent bounding box"><rect class="cls-2" width="48" height="48"/></g></svg>