<svg xmlns="http://www.w3.org/2000/svg" viewBox="0 0 48 48"><defs><style>.cls-1{fill:#0075be;}.cls-2{fill:none;}</style></defs><title>48-external-link</title><g id="Layer_1" data-name="Layer 1"><path class="cls-1" d="M41,6H30.38a1,1,0,1,0,0,2h8.21L23.29,23.29a1,1,0,0,0,0,1.42,1,1,0,0,0,1.42,0L40,9.41v8.21a1,1,0,1,0,2,0V7A1,1,0,0,0,41,6Z"/><path class="cls-1" d="M38.88,25a1,1,0,0,0-1,1V40H8V10.12H22a1,1,0,0,0,0-2H7a1,1,0,0,0-1,1V41a1,1,0,0,0,1,1H38.88a1,1,0,0,0,1-1V26A1,1,0,0,0,38.88,25Z"/></g><g id="transparent_bounding_box" data-name="transparent bounding box"><rect class="cls-2" width="48" height="48"/></g></svg>