<?xml version="1.0" encoding="utf-8"?>
<!-- Generator: Adobe Illustrator 22.1.0, SVG Export Plug-In . SVG Version: 6.00 Build 0)  -->
<svg version="1.1" id="Layer_1" xmlns="http://www.w3.org/2000/svg" xmlns:xlink="http://www.w3.org/1999/xlink" x="0px" y="0px"
	 viewBox="0 0 48 48" style="enable-background:new 0 0 48 48;" xml:space="preserve">
<style type="text/css">
	.st0{fill:#0075BE;}
	.st1{fill:none;}
</style>
<title>48-enclosed-minus</title>
<path class="st0" d="M32.4,22.8H15.6c-0.6,0-1,0.4-1,1s0.4,1,1,1h16.8c0.6,0,1-0.4,1-1S33,22.8,32.4,22.8z"/>
<g id="transparent_bounding_box">
	<rect class="st1" width="48" height="48"/>
</g>
<g id="Layer_1_1_">
	<path class="st0" d="M24,6C14.1,6,6,14.1,6,24s8.1,18,18,18s18-8.1,18-18S33.9,6,24,6z M24,40c-8.8,0-16-7.2-16-16S15.2,8,24,8
		s16,7.2,16,16S32.8,40,24,40z"/>
</g>
</svg>
