<svg xmlns="http://www.w3.org/2000/svg" viewBox="0 0 48 48"><defs><style>.cls-1{fill:#0075be;}.cls-2{fill:none;}</style></defs><title>48-edit</title><g id="Layer_1" data-name="Layer 1"><path class="cls-1" d="M10.32,38.28l4.57.43H15a1,1,0,0,0,.71-.29l21-21a1,1,0,0,0,.23.34l1.52,1.53a.54.54,0,0,1,.17.4.56.56,0,0,1-.17.4l-7.77,7.76a1,1,0,0,0,0,1.41,1,1,0,0,0,1.41,0l7.78-7.76a2.57,2.57,0,0,0,0-3.63l-1.53-1.52a1,1,0,0,0-.34-.22l2.21-2.21a4.54,4.54,0,0,0,0-6.4,4.55,4.55,0,0,0-6.41,0l-3,3h0L9.28,32a1,1,0,0,0-.29.8l.43,4.56A1,1,0,0,0,10.32,38.28ZM35.22,9A2.53,2.53,0,0,1,38.8,9a2.46,2.46,0,0,1,.74,1.78,2.5,2.5,0,0,1-.74,1.79l-2.14,2.13-3.58-3.57Zm-3.55,3.54,3.58,3.58L14.61,36.67l-3.27-.31L11,33.1Z"/><path class="cls-1" d="M41,39.79H7a1,1,0,0,0,0,2H41a1,1,0,0,0,0-2Z"/></g><g id="transparent_bounding_box" data-name="transparent bounding box"><rect class="cls-2" width="48" height="48"/></g></svg>