<?xml version="1.0" encoding="utf-8"?>
<!-- Generator: Adobe Illustrator 22.1.0, SVG Export Plug-In . SVG Version: 6.00 Build 0)  -->
<svg version="1.1" id="Layer_1" xmlns="http://www.w3.org/2000/svg" xmlns:xlink="http://www.w3.org/1999/xlink" x="0px" y="0px"
	 viewBox="0 0 48 48" style="enable-background:new 0 0 48 48;" xml:space="preserve">
<style type="text/css">
	.st0{fill:#0075BE;}
</style>
<title>48-enclosed-minus</title>
<g id="Layer_1_1_">
	<path class="st0" d="M24,6C14.1,6,6,14.1,6,24s8.1,18,18,18s18-8.1,18-18S33.9,6,24,6z M24,40c-8.8,0-16-7.2-16-16S15.2,8,24,8
		s16,7.2,16,16S32.8,40,24,40z"/>
</g>
<path class="st0" d="M32.5,23H25v-7.5c0-0.6-0.5-1-1-1c-0.6,0-1,0.5-1,1V23h-7.5c-0.6,0-1,0.5-1,1s0.5,1,1,1H23v7.5c0,0.6,0.5,1,1,1
	c0.6,0,1-0.5,1-1V25h7.5c0.6,0,1-0.5,1-1S33,23,32.5,23z"/>
</svg>
