<svg xmlns="http://www.w3.org/2000/svg" viewBox="0 0 48 48"><defs><style>.cls-1{fill:#0075be;}.cls-2{fill:none;}</style></defs><title>48-location</title><g id="Layer_1" data-name="Layer 1"><path class="cls-1" d="M24,6A14.9,14.9,0,0,0,12.76,30.79l10.42,10.9a1,1,0,0,0,.72.31h0a1,1,0,0,0,.71-.3l7.32-7.53,3.29-3.39,0,0A14.88,14.88,0,0,0,24,6Zm9.78,23.41-3.27,3.36-6.6,6.79L14.24,29.44A13,13,0,1,1,37,20.92,12.83,12.83,0,0,1,33.78,29.41Z"/><path class="cls-1" d="M24,14a7,7,0,1,0,7,7A7,7,0,0,0,24,14Zm0,11.93a5,5,0,1,1,5-5A5,5,0,0,1,24,25.88Z"/></g><g id="transparent_bounding_box" data-name="transparent bounding box"><rect class="cls-2" width="48" height="48"/></g></svg>