<?xml version="1.0" encoding="utf-8"?>
<!-- Generator: Adobe Illustrator 22.1.0, SVG Export Plug-In . SVG Version: 6.00 Build 0)  -->
<svg version="1.1" id="Layer_1" xmlns="http://www.w3.org/2000/svg" xmlns:xlink="http://www.w3.org/1999/xlink" x="0px" y="0px"
	 viewBox="0 0 48 48" style="enable-background:new 0 0 48 48;" xml:space="preserve">
<style type="text/css">
	.st0{fill:#0075BE;}
	.st1{fill:none;}
</style>
<title>48-mail</title>
<path class="st0" d="M40,11H8c-0.6,0-1,0.4-1,1v24c0,0.6,0.4,1,1,1h32c0.6,0,1-0.4,1-1V12C41,11.4,40.6,11,40,11z M39,13v0.5
	L24.6,24.3c-0.4,0.3-0.8,0.3-1.2,0L9,13.5V13H39z M9,35V16l13.2,9.9c1.1,0.8,2.5,0.8,3.6,0L39,16v19H9z"/>
<g id="transparent_bounding_box">
	<rect class="st1" width="48" height="48"/>
</g>
</svg>
