<svg xmlns="http://www.w3.org/2000/svg" viewBox="0 0 48 48"><defs><style>.cls-1{fill:#0075be;}.cls-2{fill:none;}</style></defs><title>48-profile</title><g id="Layer_1" data-name="Layer 1"><path class="cls-1" d="M37.68,34.52l-6-3.25a2.07,2.07,0,0,1-1.1-1.83V27.12l0-.05,0,0,.14-.19.39-.56a.05.05,0,0,1,0,0l.24-.38c.16-.28.34-.58.51-.93l.31-.65.28-.69c.08-.2.15-.41.22-.62l0-.17c.06-.19.11-.38.16-.58a2.33,2.33,0,0,0,1-1.89V17.67A2.34,2.34,0,0,0,33.26,16V12.27s0-.09,0-.14a5.57,5.57,0,0,0-1.35-3.89C30.62,6.75,28.46,6,25.53,6h-1c-2.94,0-5.1.75-6.41,2.24a5.5,5.5,0,0,0-1.34,3.89s0,.09,0,.13V16a2.34,2.34,0,0,0-.67,1.63v2.66a2.34,2.34,0,0,0,1,1.89c.05.2.11.4.18.63l0,.12c.06.21.14.42.21.62l.11.28.05.12.16.37.27.58c.18.34.35.64.51.91l0,0c.07.13.14.24.22.37s.29.43.4.57l.14.2,0,0,.05,2.38a2.08,2.08,0,0,1-1.11,1.83l-6,3.25a5.64,5.64,0,0,0-3,5V41a1,1,0,0,0,1,1H39.66a1,1,0,0,0,1-1V39.51A5.65,5.65,0,0,0,37.68,34.52Zm1,5.48H11.35v-.49a3.66,3.66,0,0,1,1.94-3.23l6-3.25a4.07,4.07,0,0,0,2.16-3.59V26.76a1,1,0,0,0-.24-.65l-.15-.17h0l-.08-.1,0,0-.1-.14c-.09-.13-.21-.29-.32-.46l0-.05-.2-.32c-.14-.24-.29-.5-.44-.8s-.16-.32-.27-.57l-.24-.58c-.06-.16-.12-.34-.17-.51l-.05-.15c-.06-.19-.11-.39-.16-.58l-.06-.26a1,1,0,0,0-.44-.63l-.23-.14a.34.34,0,0,1-.16-.28V17.67a.31.31,0,0,1,.12-.24l.22-.2a1,1,0,0,0,.33-.74V12.1a.65.65,0,0,0,0-.2,3.58,3.58,0,0,1,.85-2.34C20.5,8.53,22.15,8,24.49,8h1c2.34,0,4,.53,4.9,1.56a3.57,3.57,0,0,1,.85,2.32,1.64,1.64,0,0,0,0,.22v4.39a1,1,0,0,0,.33.74l.22.2a.31.31,0,0,1,.12.24v2.66a.34.34,0,0,1-.16.28l-.23.14a1,1,0,0,0-.44.63l-.06.25a5.83,5.83,0,0,1-.17.62l0,.12c-.06.17-.11.34-.18.52l-.08.2-.06.14-.13.31-.23.49c-.15.3-.3.56-.46.82l-.19.31h0c-.13.2-.24.36-.34.49l-.09.13,0,0-.08.11,0,0h0l-.13.15a1,1,0,0,0-.23.65v2.68A4.06,4.06,0,0,0,30.72,33l6,3.25a3.67,3.67,0,0,1,1.93,3.23Z"/></g><g id="transparent_bounding_box" data-name="transparent bounding box"><rect class="cls-2" width="48" height="48"/></g></svg>