<svg xmlns="http://www.w3.org/2000/svg" viewBox="0 0 48 48"><defs><style>.cls-1{fill:#0075be;}.cls-2{fill:none;}</style></defs><title>48-phone</title><g id="Layer_1" data-name="Layer 1"><path class="cls-1" d="M42,34.24a2.21,2.21,0,0,0-.88-1.44c-.54-.38-6.52-4.29-7.26-4.73a3.07,3.07,0,0,0-3,.18c-.57.29-2.25,1.23-3.12,1.72a43,43,0,0,1-5.23-4.53,43.47,43.47,0,0,1-4.59-5.12c.5-.86,1.44-2.49,1.73-3a3,3,0,0,0,.17-3c-.43-.66-4.39-6.56-4.81-7.13a2.71,2.71,0,0,0-3.72-.29S5.93,10.67,6,12.9c.16,4.83,3.88,10.87,11.07,17.93s13.3,10.72,18.24,10.88h0c2.24,0,6-5.15,6-5.2A3,3,0,0,0,42,34.24Zm-2.21,1.11c-1.1,1.56-3.64,4.24-4.4,4.36-5.47-.18-12.2-5.7-16.88-10.3S8.17,18.2,8,12.85c.13-.75,2.86-3.24,4.42-4.32a1.22,1.22,0,0,1,.7-.24.57.57,0,0,1,.28.06c.39.54,4.33,6.41,4.73,7a1.47,1.47,0,0,1-.24,1c-.38.71-2,3.49-2,3.52a1,1,0,0,0,0,1,35.74,35.74,0,0,0,5.23,6A35.16,35.16,0,0,0,27.2,32a1,1,0,0,0,1,0s2.86-1.61,3.58-2a1.49,1.49,0,0,1,1-.23c.72.43,6.7,4.34,7.14,4.64C40,34.51,40.09,34.88,39.75,35.35Z"/></g><g id="transparent_bounding_box" data-name="transparent bounding box"><rect class="cls-2" width="48" height="48"/></g></svg>