<svg xmlns="http://www.w3.org/2000/svg" xmlns:xlink="http://www.w3.org/1999/xlink" viewBox="0 0 48 48"><defs><style>.cls-1,.cls-2,.cls-3{fill:#0075be;}.cls-1{clip-rule:evenodd;}.cls-3{fill-rule:evenodd;}.cls-4{clip-path:url(#clip-path);}.cls-5{isolation:isolate;}.cls-6{clip-path:url(#clip-path-2);}.cls-7{clip-path:url(#clip-path-3);}.cls-8{clip-path:url(#clip-path-4);}.cls-9{fill:none;}</style><clipPath id="clip-path"><path class="cls-1" d="M10.28,14.31l6.85,8.46a1.3,1.3,0,0,1,.1.15L36.62,11.83ZM18.07,24.7a1,1,0,0,1,.1.29l1.64,10,15.9-20.37ZM16.34,25,16,24.33a1,1,0,0,1-.31-.24L8.09,14.65A.83.83,0,0,1,8,14.53a1,1,0,0,1-1-.91,1,1,0,0,1,.85-1.09l32-3a.89.89,0,0,1,.57.15,1.11,1.11,0,0,1,.24.16,1,1,0,0,1,.11,1.41L20.19,37.61a1,1,0,0,1-.76.86.9.9,0,0,1-.65-.14.78.78,0,0,1-.24-.16,1,1,0,0,1-.28-1.09L16.33,25.34A1,1,0,0,1,16.34,25Z"/></clipPath><clipPath id="clip-path-2"><rect class="cls-2" x="-31.9" y="-35.97" width="111.65" height="120"/></clipPath><clipPath id="clip-path-3"><rect class="cls-2" x="6.25" y="9.03" width="35.36" height="30"/></clipPath><clipPath id="clip-path-4"><path class="cls-1" d="M-31.9-32a3.86,3.86,0,0,1,3.72-4H76a3.87,3.87,0,0,1,3.72,4V80A3.87,3.87,0,0,1,76,84H-28.18a3.87,3.87,0,0,1-3.72-4Z"/></clipPath></defs><title>48-send-plane</title><g id="Layer_1" data-name="Layer 1"><path class="cls-3" d="M10.28,14.31l6.85,8.46a1.3,1.3,0,0,1,.1.15L36.62,11.83ZM18.07,24.7a1,1,0,0,1,.1.29l1.64,10,15.9-20.37ZM16.34,25,16,24.33a1,1,0,0,1-.31-.24L8.09,14.65A.83.83,0,0,1,8,14.53a1,1,0,0,1-1-.91,1,1,0,0,1,.85-1.09l32-3a.89.89,0,0,1,.57.15,1.11,1.11,0,0,1,.24.16,1,1,0,0,1,.11,1.41L20.19,37.61a1,1,0,0,1-.76.86.9.9,0,0,1-.65-.14.78.78,0,0,1-.24-.16,1,1,0,0,1-.28-1.09L16.33,25.34A1,1,0,0,1,16.34,25Z"/><g class="cls-4"><g class="cls-5"><rect class="cls-2" x="-31.9" y="-35.97" width="111.65" height="120"/><g class="cls-6"><rect class="cls-2" x="6.25" y="9.03" width="35.36" height="30"/><g class="cls-7"><rect class="cls-2" x="2.35" y="4.52" width="43.3" height="38.96"/></g><path class="cls-3" d="M-31.9-32a3.86,3.86,0,0,1,3.72-4H76a3.87,3.87,0,0,1,3.72,4V80A3.87,3.87,0,0,1,76,84H-28.18a3.87,3.87,0,0,1-3.72-4Z"/><g class="cls-8"><rect class="cls-2" x="6.25" y="9.03" width="35.36" height="30"/><g class="cls-7"><rect class="cls-2" x="-36.55" y="-40.97" width="120.96" height="130"/></g></g></g></g></g></g><g id="transparent_bounding_box" data-name="transparent bounding box"><rect class="cls-9" width="48" height="48"/></g></svg>