<svg xmlns="http://www.w3.org/2000/svg" viewBox="0 0 48 48"><defs><style>.cls-1{fill:#0075be;}.cls-2{fill:none;}</style></defs><title>48-transfer</title><g id="Layer_1" data-name="Layer 1"><path class="cls-1" d="M42,14.61a1,1,0,0,0-.35-.75L34,6.29A1,1,0,0,0,32.6,7.71l5.95,5.9H7a1,1,0,0,0,0,2H38.58l-6,5.89a1,1,0,0,0,.71,1.71,1,1,0,0,0,.7-.29l7.69-7.59a1,1,0,0,0,.3-.71Z"/><path class="cls-1" d="M41,32.39H9.45l6-5.89a1,1,0,0,0,0-1.42,1,1,0,0,0-1.41,0L6.35,32.65a1,1,0,0,0-.35.74H6a1,1,0,0,0,.3.71L14,41.71a1,1,0,0,0,1.42,0,1,1,0,0,0,0-1.41l-6-5.9H41a1,1,0,0,0,0-2Z"/></g><g id="transparent_bounding_box" data-name="transparent bounding box"><rect class="cls-2" width="48" height="48"/></g></svg>