<?xml version="1.0" encoding="UTF-8"?>
<svg width="72px" height="72px" viewBox="0 0 72 72" version="1.1" xmlns="http://www.w3.org/2000/svg" xmlns:xlink="http://www.w3.org/1999/xlink">
    <!-- Generator: Sketch 46.2 (44496) - http://www.bohemiancoding.com/sketch -->
    <title>avatar / B</title>
    <desc>Created with Sketch.</desc>
    <defs>
        <circle id="path-1" cx="36" cy="36" r="36"></circle>
    </defs>
    <g id="PROFILE-LETTERS" stroke="none" stroke-width="1" fill="none" fill-rule="evenodd">
        <g id="avatar-/-B">
            <mask id="mask-2" fill="white">
                <use xlink:href="#path-1"></use>
            </mask>
            <use id="circle" fill="#FFFFFF" xlink:href="#path-1"></use>
            <g id="Group-2" mask="url(#mask-2)">
                <g transform="translate(28.000000, 24.000000)">
                    <path d="M1.5501,0.000585365854 L1.5501,23.994439" id="Stroke-141" stroke="#0079C1" stroke-width="3" fill="none" stroke-linecap="round" stroke-linejoin="round"></path>
                    <path d="M1.65,0.000585365854 L9.0708,0.000585365854 C9.0708,0.000585365854 15.5403,0.232390244 15.5403,5.87004878 C15.5403,11.507122 9.0708,11.603122 9.0708,11.603122 L1.65,11.603122" id="Stroke-143" stroke="#005587" stroke-width="3" fill="none" stroke-linecap="round" stroke-linejoin="round"></path>
                    <path d="M1.65,11.6087122 L9.0708,11.6087122 C9.0708,11.6087122 15.5403,11.856322 15.5403,17.8741756 C15.5403,23.892322 9.0708,23.9938829 9.0708,23.9938829 L1.65,23.9938829" id="Stroke-145" stroke="#73C3EB" stroke-width="3" fill="none" stroke-linecap="round" stroke-linejoin="round"></path>
                    <path d="M3,11.5 C3,12.3285 2.3285,13 1.5,13 C0.672,13 0,12.3285 0,11.5 C0,10.6715 0.672,10 1.5,10 C2.3285,10 3,10.6715 3,11.5" id="Fill-283" stroke="none" fill="#231F20" fill-rule="evenodd"></path>
                </g>
            </g>
        </g>
    </g>
</svg>