<?xml version="1.0" encoding="UTF-8"?>
<svg width="72px" height="72px" viewBox="0 0 72 72" version="1.1" xmlns="http://www.w3.org/2000/svg" xmlns:xlink="http://www.w3.org/1999/xlink">
    <!-- Generator: Sketch 46.2 (44496) - http://www.bohemiancoding.com/sketch -->
    <title>avatar / G</title>
    <desc>Created with Sketch.</desc>
    <defs>
        <circle id="path-1" cx="36" cy="36" r="36"></circle>
    </defs>
    <g id="PROFILE-LETTERS" stroke="none" stroke-width="1" fill="none" fill-rule="evenodd">
        <g id="avatar-/-G">
            <mask id="mask-2" fill="white">
                <use xlink:href="#path-1"></use>
            </mask>
            <use id="circle" fill="#FFFFFF" xlink:href="#path-1"></use>
            <g id="Group-15" mask="url(#mask-2)">
                <g transform="translate(27.000000, 24.000000)">
                    <path d="M17.4919355,7.16593735 C16.1149355,2.95119036 12.9356129,0.000636144578 9.23341935,0.000636144578 C4.26977419,0.000636144578 0.245903226,5.30463614 0.245903226,11.8476723 C0.245903226,18.3907084 4.26977419,23.6949976 9.23341935,23.6949976 C9.23341935,23.6949976 14.9005161,24.2033349 16.848871,20.6686843 L16.848871,13.6002506 L9.61229032,13.6002506" id="Stroke-183" stroke="#0079C1" stroke-width="3" fill="none" stroke-linecap="round" stroke-linejoin="round"></path>
                    <path d="M16.875,13.5 L16.875,20.625" id="Stroke-171" stroke="#73C3EB" stroke-width="3" fill="none" stroke-linecap="round" stroke-linejoin="round"></path>
                    <path d="M17.4919355,7.16593735 C16.1149355,2.95119036 12.9356129,0.000636144578 9.23341935,0.000636144578 C4.26977419,0.000636144578 0.245903226,5.30463614 0.245903226,11.8476723 C0.245903226,18.3907084 4.26977419,23.6949976 9.23341935,23.6949976" id="Stroke-189" stroke="#005587" stroke-width="3" fill="none" stroke-linecap="round" stroke-linejoin="round"></path>
                    <path d="M18,13.5 C18,14.328 17.328,15 16.5,15 C15.6715,15 15,14.328 15,13.5 C15,12.6715 15.6715,12 16.5,12 C17.328,12 18,12.6715 18,13.5" id="Fill-291" stroke="none" fill="#231F20" fill-rule="evenodd"></path>
                </g>
            </g>
        </g>
    </g>
</svg>