<?xml version="1.0" encoding="UTF-8"?>
<svg width="72px" height="72px" viewBox="0 0 72 72" version="1.1" xmlns="http://www.w3.org/2000/svg" xmlns:xlink="http://www.w3.org/1999/xlink">
    <!-- Generator: Sketch 46.2 (44496) - http://www.bohemiancoding.com/sketch -->
    <title>avatar / O</title>
    <desc>Created with Sketch.</desc>
    <defs>
        <circle id="path-1" cx="36" cy="36" r="36"></circle>
    </defs>
    <g id="PROFILE-LETTERS" stroke="none" stroke-width="1" fill="none" fill-rule="evenodd">
        <g id="avatar-/-O">
            <mask id="mask-2" fill="white">
                <use xlink:href="#path-1"></use>
            </mask>
            <use id="circle" fill="#FFFFFF" xlink:href="#path-1"></use>
            <g id="Group-2" mask="url(#mask-2)">
                <g transform="translate(27.000000, 24.000000)">
                    <path d="M8.84751769,0.00883947284 C8.84751769,0.00883947284 -0.513888557,-0.753958388 0.0221739428,11.8924416 C0.420705193,21.2954448 5.97201769,22.4642833 8.79351769,22.4451175" id="Stroke-219" stroke="#0079C1" stroke-width="3" fill="none" stroke-linecap="round" stroke-linejoin="round"></path>
                    <path d="M9.01505832,0.00883947284 C9.01505832,0.00883947284 18.3767458,-0.753958388 17.8406833,11.8924416 C17.4418708,21.2954448 11.8908396,22.4642833 9.06933957,22.4451175" id="Stroke-221" stroke="#73C3EB" stroke-width="3" fill="none" stroke-linecap="round" stroke-linejoin="round"></path>
                    <path d="M7.43948169,23.5608384 C6.8535061,22.9747896 6.8535061,22.0252104 7.43948169,21.4391616 C8.02545727,20.8536128 8.97491771,20.8536128 9.5608933,21.4391616 C10.1463689,22.0252104 10.1463689,22.9747896 9.5608933,23.5608384 C8.97491771,24.1463872 8.02545727,24.1463872 7.43948169,23.5608384" id="Fill-305" stroke="none" fill="#231F20" fill-rule="evenodd"></path>
                </g>
            </g>
        </g>
    </g>
</svg>