<?xml version="1.0" encoding="utf-8"?>
<!-- Generator: Adobe Illustrator 22.1.0, SVG Export Plug-In . SVG Version: 6.00 Build 0)  -->
<svg version="1.1" id="Layer_1" xmlns="http://www.w3.org/2000/svg" xmlns:xlink="http://www.w3.org/1999/xlink" x="0px" y="0px"
	 viewBox="0 0 24 24" style="enable-background:new 0 0 24 24;" xml:space="preserve">
<style type="text/css">
	.st0{fill:#000000;}
	.st1{fill:none;}
</style>
<g id="Layer_1_1_">
	<path class="st0" d="M4,13h13.6l-2.3,2.3c-0.4,0.4-0.4,1,0,1.4c0.4,0.4,1,0.4,1.4,0l4-4c0,0,0.1-0.1,0.1-0.1
		c0.1-0.2,0.2-0.4,0.2-0.6c0-0.3-0.1-0.5-0.3-0.7l-4-4c-0.4-0.4-1-0.4-1.4,0c0,0,0,0,0,0c-0.4,0.4-0.4,1,0,1.4c0,0,0,0,0,0l2.3,2.3
		H4c-0.6,0-1,0.4-1,1S3.4,13,4,13z"/>
</g>
<g id="transparent_bounding_box">
	<rect class="st1" width="24" height="24"/>
</g>
</svg>
