<?xml version="1.0" encoding="utf-8"?>
<!-- Generator: Adobe Illustrator 22.1.0, SVG Export Plug-In . SVG Version: 6.00 Build 0)  -->
<svg version="1.1" id="Layer_1" xmlns="http://www.w3.org/2000/svg" xmlns:xlink="http://www.w3.org/1999/xlink" x="0px" y="0px"
	 viewBox="0 0 24 24" style="enable-background:new 0 0 24 24;" xml:space="preserve">
<style type="text/css">
	.st0{fill:#C81414;}
	.st1{fill:none;}
</style>
<title>00</title>
<g id="Layer_1_1_">
	<path class="st0" d="M12,3c-0.6,0-1,0.4-1,1v13.6l-2.3-2.3l0,0c-0.4-0.4-1-0.4-1.4,0l0,0c-0.4,0.4-0.4,1,0,1.4l4,4
		c0.2,0.2,0.4,0.3,0.7,0.3c0.2,0,0.4-0.1,0.6-0.2l0.1-0.1l4-4c0.4-0.4,0.4-1,0-1.4s-1-0.4-1.4,0L13,17.6V4C13,3.4,12.6,3,12,3z"/>
</g>
<g id="transparent_bounding_box">
	<rect class="st1" width="24" height="24"/>
</g>
</svg>
