<svg xmlns="http://www.w3.org/2000/svg" viewBox="0 0 24 24"><defs><style>.cls-1{fill:#000000;fill-rule:evenodd;}.cls-2{fill:none;}</style></defs><title>00</title><g id="Layer_1" data-name="Layer 1"><path class="cls-1" d="M2,12A10,10,0,1,1,12,22,10,10,0,0,1,2,12ZM8.65,8.4H6a1,1,0,0,0-1,1v3.27a1,1,0,0,0,1,1H8.6l8.85,1.94V6Zm0,9.84a1,1,0,0,0,0,.17,1,1,0,0,0,1,1h.33a1,1,0,0,0,1-1V14.92L9.25,14.4Z"/></g><g id="transparent_bounding_box" data-name="transparent bounding box"><rect class="cls-2" width="24" height="24"/></g></svg>