<?xml version="1.0" encoding="utf-8"?>
<!-- Generator: Adobe Illustrator 22.1.0, SVG Export Plug-In . SVG Version: 6.00 Build 0)  -->
<svg version="1.1" id="Layer_1" xmlns="http://www.w3.org/2000/svg" xmlns:xlink="http://www.w3.org/1999/xlink" x="0px" y="0px"
	 viewBox="0 0 24 24" style="enable-background:new 0 0 24 24;" xml:space="preserve">
<style type="text/css">
	.st0{fill:#000000;}
	.st1{fill:none;}
</style>
<g id="Layer_1_1_">
	<path class="st0" d="M13,20V6.4l2.3,2.3c0.4,0.4,1,0.4,1.4,0s0.4-1,0-1.4l-4-4c0,0-0.1-0.1-0.1-0.1C12.4,3.1,12.2,3,12,3
		c-0.3,0-0.5,0.1-0.7,0.3l-4,4c-0.4,0.4-0.4,1,0,1.4c0,0,0,0,0,0c0.4,0.4,1,0.4,1.4,0c0,0,0,0,0,0L11,6.4V20c0,0.6,0.4,1,1,1
		S13,20.6,13,20z"/>
</g>
<g id="transparent_bounding_box">
	<rect x="0" y="0" class="st1" width="24" height="24"/>
</g>
</svg>
