<svg xmlns="http://www.w3.org/2000/svg" viewBox="0 0 24 24"><defs><style>.cls-1{fill:#000000;}.cls-2{fill:none;}</style></defs><title>00</title><g id="Layer_1" data-name="Layer 1"><path class="cls-1" d="M9,22H8.82a1,1,0,0,1-.73-.56L6.3,17.7,2.57,15.91a1,1,0,0,1-.28-1.61l1.48-1.47a1.09,1.09,0,0,1,.71-.3l3.41,0,1.77-1.77L3.27,8.42A1.61,1.61,0,0,1,2.7,5.77L3.52,5a1.6,1.6,0,0,1,1.27-.46l10.31.86,2.62-2.62A2.45,2.45,0,0,1,19.49,2,2.53,2.53,0,0,1,22,4.51a2.45,2.45,0,0,1-.73,1.77L18.65,8.9l.86,10.31a1.6,1.6,0,0,1-.46,1.27l-.82.82a1.59,1.59,0,0,1-1.48.44,1.61,1.61,0,0,1-1.17-1l-2.37-6.38-1.77,1.77,0,3.41a1,1,0,0,1-.3.71L9.7,21.71A1,1,0,0,1,9,22Zm8.47-2h0Zm-3.86-8.5a.78.78,0,0,1,.22,0,1,1,0,0,1,.72.63l2.71,7.27.25-.26L16.62,8.61a1,1,0,0,1,.29-.79l2.95-3A.48.48,0,0,0,20,4.52a.56.56,0,0,0-.15-.37A.6.6,0,0,0,19.48,4a.48.48,0,0,0-.34.14l-3,3a1,1,0,0,1-.79.29L4.8,6.5l-.26.25,7.27,2.71a1,1,0,0,1,.63.72,1,1,0,0,1-.27.92L9,14.27a1,1,0,0,1-.72.29l-3.4,0-.18.18,2.77,1.33a1,1,0,0,1,.47.47l1.33,2.77.18-.18,0-3.4A1,1,0,0,1,9.73,15l3.17-3.16A1,1,0,0,1,13.6,11.53Z"/></g><g id="transparent_bounding_box" data-name="transparent bounding box"><rect class="cls-2" width="24" height="24"/></g></svg>