<svg xmlns="http://www.w3.org/2000/svg" viewBox="0 0 24 24"><defs><style>.cls-1{fill:#000000;}.cls-2{fill:none;}</style></defs><g id="Layer_1" data-name="Layer 1"><path class="cls-1" d="M20.92,14.55l-.5-4.27a8.35,8.35,0,0,0-6.65-8.06l-3.33,0-.21,0a8.35,8.35,0,0,0-6.65,8.06l-.5,4.27A2.75,2.75,0,0,0,2,16.71v.17c0,2,2,2,2.77,2H8.31a3.63,3.63,0,0,0,7.11,0h3.8c.75,0,2.77,0,2.77-2v-.17A2.75,2.75,0,0,0,20.92,14.55ZM11.86,19.8a1.62,1.62,0,0,1-1.45-.89h2.9A1.6,1.6,0,0,1,11.86,19.8ZM20,16.87a4.44,4.44,0,0,1-.76,0H4.78a4.51,4.51,0,0,1-.77,0v-.16A.75.75,0,0,1,4.45,16L5,15.8l.62-5.35v-.11a6.33,6.33,0,0,1,5-6.14h2.92a6.33,6.33,0,0,1,5,6.14l.63,5.46.5.24a.75.75,0,0,1,.44.67Z"/></g><g id="transparent_bounding_box" data-name="transparent bounding box"><rect class="cls-2" width="24" height="24"/></g></svg>