<svg xmlns="http://www.w3.org/2000/svg" viewBox="0 0 24 24"><defs><style>.cls-1{fill:#000000;}.cls-2{fill:none;}</style></defs><g id="Layer_1" data-name="Layer 1"><path class="cls-1" d="M7.5,17a1,1,0,0,1-1-1V7a1,1,0,0,1,2,0v9A1,1,0,0,1,7.5,17Zm11-1V5a1,1,0,0,0-2,0V16a1,1,0,0,0,2,0Zm-5,0V11a1,1,0,0,0-2,0v5a1,1,0,0,0,2,0Zm8,4a1,1,0,0,0-1-1H4.5V4a1,1,0,0,0-2,0V20a1,1,0,0,0,1,1h17A1,1,0,0,0,21.5,20Z"/></g><g id="transparent_bounding_box" data-name="transparent bounding box"><rect class="cls-2" width="24" height="24"/></g></svg>