<svg xmlns="http://www.w3.org/2000/svg" viewBox="0 0 24 24"><defs><style>.cls-1{fill:#000000;}.cls-2{fill:none;}</style></defs><g id="Layer_1" data-name="Layer 1"><path class="cls-1" d="M15.75,11.25a5.5,5.5,0,1,0-7.5,0,7.37,7.37,0,0,0-4.66,6.84v2.65a1,1,0,0,0,2,0V18.09A5.34,5.34,0,0,1,9.28,13v0a2.32,2.32,0,0,0,.94,1.86l-.84,4.56a1.77,1.77,0,0,0,.7,1.75l1,.68a1.84,1.84,0,0,0,1.09.35,1.82,1.82,0,0,0,1.09-.35l1-.68a1.77,1.77,0,0,0,.7-1.75L14,14.92A2.3,2.3,0,0,0,15,13.11a5.35,5.35,0,0,1,3.43,5v2.65a1,1,0,0,0,2,0V18.09A7.37,7.37,0,0,0,15.75,11.25Zm-3.09,1.49a.32.32,0,0,1,.33.32.33.33,0,0,1-.33.32H11.6a.33.33,0,0,1-.32-.32.32.32,0,0,1,.32-.32Zm-.66-9a3.5,3.5,0,1,1-3.5,3.5A3.5,3.5,0,0,1,12,3.74Zm.13,16.49-.75-.54.75-4.1.76,4.1Z"/></g><g id="transparent_bounding_box" data-name="transparent bounding box"><rect class="cls-2" width="24" height="24"/></g></svg>