<svg xmlns="http://www.w3.org/2000/svg" viewBox="0 0 24 24"><defs><style>.cls-1{fill:#000000;}.cls-2{fill:none;}</style></defs><g id="Layer_1" data-name="Layer 1"><path class="cls-1" d="M22,4.74a1,1,0,0,0,0-.24,1,1,0,0,0-1-1H15.15A4.17,4.17,0,0,0,12,4.94,4.17,4.17,0,0,0,8.85,3.5H3a1,1,0,0,0-1,1,1,1,0,0,0,0,.24v14.1a1,1,0,0,0,0,.47A1,1,0,0,0,3.3,20h0a.16.16,0,0,0,.09,0,2.18,2.18,0,0,1,.72-.12H10a2.23,2.23,0,0,1,1.38.48.82.82,0,0,0,.42.17s.05,0,.08,0l.18,0a1,1,0,0,0,.62-.22A2.23,2.23,0,0,1,14,19.8h5.85a2.22,2.22,0,0,1,.76.14l.06,0a1,1,0,0,0,1.23-.65,1,1,0,0,0,0-.47ZM4.12,17.8H4V5.5H8.85a2.09,2.09,0,0,1,2.15,2v10.4a4.4,4.4,0,0,0-1-.13Zm15.85,0H14a4.4,4.4,0,0,0-1,.13V7.53a2.09,2.09,0,0,1,2.15-2H20ZM8.88,9.58H6.25a1,1,0,0,1,0-2H8.88a1,1,0,0,1,0,2Zm0,3.07H6.25a1,1,0,1,1,0-2H8.88a1,1,0,0,1,0,2Zm0,3.07H6.25a1,1,0,1,1,0-2H8.88a1,1,0,0,1,0,2Zm9-6.14H15.25a1,1,0,0,1,0-2h2.63a1,1,0,0,1,0,2Zm0,3.07H15.25a1,1,0,0,1,0-2h2.63a1,1,0,0,1,0,2Zm0,3.07H15.25a1,1,0,0,1,0-2h2.63a1,1,0,0,1,0,2Z"/></g><g id="transparent_bounding_box" data-name="transparent bounding box"><rect class="cls-2" width="24" height="24"/></g></svg>