<svg xmlns="http://www.w3.org/2000/svg" viewBox="0 0 24 24"><defs><style>.cls-1{fill:#000000;}.cls-2{fill:none;}</style></defs><g id="Layer_1" data-name="Layer 1"><path class="cls-1" d="M22,10.66l-2.1-6.09A2.5,2.5,0,0,0,17.5,2.88H6.5A2.42,2.42,0,0,0,4.15,4.56l-2.1,6.1A1.13,1.13,0,0,0,2,11v8.13a1.94,1.94,0,0,0,2,2H6a1.94,1.94,0,0,0,2-2l8,0v0a1.94,1.94,0,0,0,2,2h2a1.94,1.94,0,0,0,2-2V11A1.13,1.13,0,0,0,22,10.66ZM6.05,5.2a.42.42,0,0,1,.45-.32h11A.5.5,0,0,1,18,5.2v0L19.25,9H4.75ZM20,19.12H18v-1a1,1,0,0,0-1-1H7a1,1,0,0,0-1,1v1H4v-8L4.06,11H19.94l.06.18ZM7.84,14a1,1,0,1,1-1-1A1,1,0,0,1,7.84,14Zm10,0a1,1,0,1,1-1-1A1,1,0,0,1,17.84,14Z"/></g><g id="transparent_bounding_box" data-name="transparent bounding box"><rect class="cls-2" width="24" height="24"/></g></svg>