<?xml version="1.0" encoding="utf-8"?>
<!-- Generator: Adobe Illustrator 22.1.0, SVG Export Plug-In . SVG Version: 6.00 Build 0)  -->
<svg version="1.1" id="Layer_1" xmlns="http://www.w3.org/2000/svg" xmlns:xlink="http://www.w3.org/1999/xlink" x="0px" y="0px"
	 viewBox="0 0 24 24" style="enable-background:new 0 0 24 24;" xml:space="preserve">
<style type="text/css">
	.st0{fill:#001928;}
	.st1{fill:none;}
</style>
<title>granite</title>
<g id="Layer_1_1_">
	<path class="st0" d="M19.1,7.5h-2.9V5.2c0-1.5-1.3-2.8-2.8-2.8H4.9c-1.5,0-2.8,1.3-2.8,2.8v8.5c0,1.6,1.3,2.8,2.8,2.8h2.9v2.3
		c0,1.5,1.3,2.8,2.8,2.8h8.5c1.5,0,2.8-1.3,2.8-2.8v-8.5C21.9,8.7,20.7,7.5,19.1,7.5L19.1,7.5z M4.9,14.5c-0.4,0-0.8-0.4-0.8-0.8
		l0,0V5.2c0-0.4,0.4-0.8,0.8-0.8h8.5c0.4,0,0.8,0.4,0.8,0.8v0v2.3h-3.6c-1.6,0-2.8,1.3-2.8,2.8c0,0,0,0,0,0v4.3L4.9,14.5z
		 M19.9,18.8c0,0.4-0.4,0.8-0.8,0.8h-8.5c-0.4,0-0.8-0.4-0.8-0.8v-8.5c0-0.4,0.4-0.8,0.8-0.8h0h8.5c0.4,0,0.8,0.4,0.8,0.8L19.9,18.8
		z"/>
	<path class="st0" d="M18.1,13.5h-2.3v-2.3c0-0.6-0.4-1-1-1s-1,0.4-1,1v2.3h-2.3c-0.6,0-1,0.4-1,1s0.4,1,1,1h2.3v2.3
		c0,0.6,0.4,1,1,1s1-0.4,1-1v-2.3h2.3c0.6,0,1-0.4,1-1S18.7,13.5,18.1,13.5z"/>
</g>
<g id="transparent_bounding_box">
	<rect class="st1" width="24" height="24"/>
</g>
</svg>
