<svg xmlns="http://www.w3.org/2000/svg" viewBox="0 0 24 24"><defs><style>.cls-1{fill:#000000;}.cls-2{fill:none;}</style></defs><g id="Layer_1" data-name="Layer 1"><path class="cls-1" d="M9,21a1,1,0,0,1-1-1V16H4a1,1,0,0,1,0-2h6v6A1,1,0,0,1,9,21Z"/><path class="cls-1" d="M15,21a1,1,0,0,1-1-1V14h6a1,1,0,0,1,0,2H16v4A1,1,0,0,1,15,21Z"/><path class="cls-1" d="M10,10H4A1,1,0,0,1,4,8H8V4a1,1,0,0,1,2,0Z"/><path class="cls-1" d="M20,10H14V4a1,1,0,0,1,2,0V8h4a1,1,0,0,1,0,2Z"/></g><g id="transparent_bounding_box" data-name="transparent bounding box"><rect class="cls-2" width="24" height="24"/></g></svg>