<svg xmlns="http://www.w3.org/2000/svg" viewBox="0 0 24 24"><defs><style>.cls-1{fill:#000000;}.cls-2{fill:none;}</style></defs><title>granite</title><g id="Layer_1" data-name="Layer 1"><path class="cls-1" d="M19.13,7.46H16.22V5.19a2.82,2.82,0,0,0-2.81-2.81H4.87A2.82,2.82,0,0,0,2.06,5.19v8.54a2.81,2.81,0,0,0,2.81,2.81H7.78v2.27a2.82,2.82,0,0,0,2.81,2.81h8.54a2.82,2.82,0,0,0,2.81-2.81V10.27A2.81,2.81,0,0,0,19.13,7.46ZM4.87,14.54a.81.81,0,0,1-.81-.81V5.19a.81.81,0,0,1,.81-.81h8.54a.81.81,0,0,1,.81.81V7.46H10.59a2.81,2.81,0,0,0-2.81,2.81v4.27Zm15.07,4.27a.81.81,0,0,1-.81.81H10.59a.81.81,0,0,1-.81-.81V10.27a.81.81,0,0,1,.81-.81h8.54a.81.81,0,0,1,.81.81Z"/><path class="cls-1" d="M18.15,13.54H15.86V11.25a1,1,0,0,0-2,0v2.29H11.57a1,1,0,0,0,0,2h2.29v2.29a1,1,0,0,0,2,0V15.54h2.29a1,1,0,0,0,0-2Z"/></g><g id="transparent_bounding_box" data-name="transparent bounding box"><rect class="cls-2" width="24" height="24"/></g></svg>