<svg xmlns="http://www.w3.org/2000/svg" viewBox="0 0 24 24"><defs><style>.cls-1{fill:#000000;}.cls-2{fill:none;}</style></defs><title>24-celebration-slate</title><g id="Layer_1" data-name="Layer 1"><path class="cls-1" d="M17.55,17.41,13.4,4.67a1.42,1.42,0,0,0-.23-.44,1.3,1.3,0,0,0-1-.48h-.35a1.3,1.3,0,0,0-1,.48,1.54,1.54,0,0,0-.23.44L6.47,17.36a1,1,0,0,0,.17,1.08c1,1.12,3,1.81,5.3,1.81h.12a7.35,7.35,0,0,0,5.31-1.81A1,1,0,0,0,17.55,17.41ZM12,6.84l2.32,7.1a8,8,0,0,1-2.26.31h-.12a8,8,0,0,1-2.25-.31Zm.06,11.41h-.12a6.6,6.6,0,0,1-3.39-.8l.52-1.61a9.81,9.81,0,0,0,2.87.41h.12a10.17,10.17,0,0,0,2.88-.41l.52,1.61A6.62,6.62,0,0,1,12.06,18.25Z"/></g><g id="transparent_bounding_box" data-name="transparent bounding box"><rect class="cls-2" width="24" height="24"/></g></svg>