<svg xmlns="http://www.w3.org/2000/svg" viewBox="0 0 24 24"><defs><style>.cls-1{fill:#000000;}.cls-2{fill:none;}</style></defs><title>00</title><g id="Layer_1" data-name="Layer 1"><path class="cls-1" d="M20,5.13H4a2,2,0,0,0-2,2v9.74a2,2,0,0,0,2,2H20a2,2,0,0,0,2-2V7.13A2,2,0,0,0,20,5.13Zm0,2V9.39H4V7.13ZM4,16.87V11.39H20v5.48Z"/><path class="cls-1" d="M13.52,13.4h-7a1,1,0,0,0,0,2h7.05a1,1,0,0,0,0-2Z"/></g><g id="transparent_bounding_box" data-name="transparent bounding box"><rect class="cls-2" width="24" height="24"/></g></svg>