<svg xmlns="http://www.w3.org/2000/svg" viewBox="0 0 24 24"><defs><style>.cls-1{fill:#000000;}.cls-2{fill:none;}</style></defs><g id="Layer_1" data-name="Layer 1"><path class="cls-1" d="M13.41,12l6.3-6.29a1,1,0,1,0-1.42-1.42L12,10.59,5.71,4.29A1,1,0,0,0,4.29,5.71L10.59,12l-6.3,6.29a1,1,0,0,0,0,1.42,1,1,0,0,0,1.42,0L12,13.41l6.29,6.3a1,1,0,0,0,1.42,0,1,1,0,0,0,0-1.42Z"/></g><g id="transparent_bounding_box" data-name="transparent bounding box"><rect class="cls-2" width="24" height="24"/></g></svg>