<svg xmlns="http://www.w3.org/2000/svg" viewBox="0 0 24 24"><defs><style>.cls-1{fill:#000000;}.cls-2{fill:none;}</style></defs><g id="Layer_1" data-name="Layer 1"><path class="cls-1" d="M21,20H3a1,1,0,0,1-1-1V8A1,1,0,0,1,3,7H6.36L8.91,4.31A1,1,0,0,1,9.63,4h4.74a1,1,0,0,1,.72.31L17.64,7H21a1,1,0,0,1,1,1V19A1,1,0,0,1,21,20ZM4,18H20V9H17.21a1,1,0,0,1-.73-.31L13.94,6H10.06L7.52,8.69A1,1,0,0,1,6.79,9H4Zm8-1a4,4,0,1,1,4-4A4,4,0,0,1,12,17Zm0-6a2,2,0,1,0,2,2A2,2,0,0,0,12,11Z"/></g><g id="transparent_bounding_box" data-name="transparent bounding box"><rect class="cls-2" width="24" height="24"/></g></svg>