<svg xmlns="http://www.w3.org/2000/svg" viewBox="0 0 24 24"><defs><style>.cls-1{fill:#000000;}.cls-2{fill:none;}</style></defs><g id="Layer_1" data-name="Layer 1"><path class="cls-1" d="M17,20.5a1,1,0,0,1-.62-.22L11.65,16.5H4a1,1,0,0,1-1-1V4.5a1,1,0,0,1,1-1H20a1,1,0,0,1,1,1v11a1,1,0,0,1-1,1H18v3a1,1,0,0,1-.57.9A.91.91,0,0,1,17,20.5Zm-12-6h7a1,1,0,0,1,.62.22L16,17.42V15.5a1,1,0,0,1,1-1h2v-9H5Z"/></g><g id="transparent_bounding_box" data-name="transparent bounding box"><rect class="cls-2" width="24" height="24"/></g></svg>