<svg xmlns="http://www.w3.org/2000/svg" viewBox="0 0 24 24"><defs><style>.cls-1{fill:#000000;}.cls-2{fill:none;}</style></defs><g id="Layer_1" data-name="Layer 1"><path class="cls-1" d="M20.62,7.22l-5-4A1,1,0,0,0,15,3H4A1,1,0,0,0,3,4V20a1,1,0,0,0,1,1H20a1,1,0,0,0,1-1V8A1,1,0,0,0,20.62,7.22ZM18.4,8H15V5.28ZM5,19V5h8V9a1,1,0,0,0,1,1h5v9Zm10.71-4.29-3,3a.81.81,0,0,1-.26.18l-.06,0a.8.8,0,0,1-.26,0A.61.61,0,0,1,12,18a1,1,0,0,1-.73-.33l-3-3a1,1,0,0,1,1.42-1.42L11,14.58V11a1,1,0,0,1,2,0v3.59l1.29-1.3a1,1,0,0,1,1.42,1.42Z"/></g><g id="transparent_bounding_box" data-name="transparent bounding box"><rect class="cls-2" width="24" height="24"/></g></svg>