<svg xmlns="http://www.w3.org/2000/svg" viewBox="0 0 24 24"><defs><style>.cls-1{fill:#000000;}.cls-2{fill:none;}</style></defs><title>00</title><g id="Layer_1" data-name="Layer 1"><path class="cls-1" d="M16,13H8a1,1,0,0,1,0-2h8a1,1,0,0,1,0,2ZM11,8a1,1,0,0,0-1-1H8A1,1,0,0,0,8,9h2A1,1,0,0,0,11,8ZM21,8V20a1,1,0,0,1-1,1H4a1,1,0,0,1-1-1V4A1,1,0,0,1,4,3H15a1,1,0,0,1,.62.22l5,4A1,1,0,0,1,21,8ZM15,5.28V8h3.4ZM19,19V10H14a1,1,0,0,1-1-1V5H5V19Zm-2-3a1,1,0,0,0-1-1H8a1,1,0,0,0,0,2h8A1,1,0,0,0,17,16Z"/></g><g id="transparent_bounding_box" data-name="transparent bounding box"><rect class="cls-2" width="24" height="24"/></g></svg>