<svg xmlns="http://www.w3.org/2000/svg" viewBox="0 0 24 24"><defs><style>.cls-1{fill:#000000;}.cls-2{fill:none;}</style></defs><g id="Layer_1" data-name="Layer 1"><path class="cls-1" d="M12,22A10,10,0,1,1,22,12,10,10,0,0,1,12,22ZM12,4a8,8,0,1,0,8,8A8,8,0,0,0,12,4Zm1.34,7.92,2.43-2.43a1,1,0,0,0,0-1.42,1,1,0,0,0-1.41,0l-2.44,2.44L9.49,8.07A1,1,0,0,0,8.07,9.49l2.44,2.43L8.07,14.36a1,1,0,1,0,1.42,1.41l2.43-2.43,2.44,2.43a1,1,0,0,0,1.41,0,1,1,0,0,0,0-1.41Z"/></g><g id="transparent_bounding_box" data-name="transparent bounding box"><rect class="cls-2" width="24" height="24"/></g></svg>