<svg xmlns="http://www.w3.org/2000/svg" viewBox="0 0 24 24"><defs><style>.cls-1{fill:#000000;}.cls-2{fill:none;}</style></defs><g id="Layer_1" data-name="Layer 1"><path class="cls-1" d="M21.74,8.91,12.42,4.59a1,1,0,0,0-.84,0L2.26,8.91a1,1,0,0,0-.56,1,1,1,0,0,0,.56,1l3.51,1.63v2.6a1,1,0,0,0,.09.88,1,1,0,0,0,.53.84l4.55,2.34a2.29,2.29,0,0,0,2.12,0l4.61-2.38a1,1,0,0,0,.54-.85V12.58L21.74,11a1,1,0,0,0,.56-1A1,1,0,0,0,21.74,8.91ZM12,6.6l7.19,3.33L12,13.26,4.81,9.93Zm4.23,8.76-4.08,2.1a.32.32,0,0,1-.3,0l-4-2.09a.53.53,0,0,0,0-.12V13.51l3.81,1.76a1,1,0,0,0,.84,0l3.81-1.76Z"/></g><g id="transparent_bounding_box" data-name="transparent bounding box"><rect class="cls-2" width="24" height="24"/></g></svg>