<svg xmlns="http://www.w3.org/2000/svg" viewBox="0 0 24 24"><defs><style>.cls-1{fill:#000000;}.cls-2{fill:none;}</style></defs><g id="Layer_1" data-name="Layer 1"><path class="cls-1" d="M12,22a9.93,9.93,0,0,1-7.07-2.93h0A10,10,0,1,1,19.07,4.93,10,10,0,0,1,12,22ZM12,4A8,8,0,0,0,6.34,17.66h0A8,8,0,1,0,12,4Zm4.44,6.89H13V7.45a1,1,0,1,0-2,0v3.44H7.56a1,1,0,1,0,0,2H11v3.45a1,1,0,0,0,2,0V12.89h3.44a1,1,0,0,0,0-2Z"/></g><g id="transparent_bounding_box" data-name="transparent bounding box"><rect class="cls-2" width="24" height="24"/></g></svg>