<svg xmlns="http://www.w3.org/2000/svg" viewBox="0 0 24 24"><defs><style>.cls-1{fill:#000000;}.cls-2{fill:none;}</style></defs><g id="Layer_1" data-name="Layer 1"><path class="cls-1" d="M16,21H5a1,1,0,0,1-1-1V4A1,1,0,0,1,5,3H16a1,1,0,0,1,1,1V6a1,1,0,0,1-2,0V5H6V19h9V18a1,1,0,0,1,2,0v2A1,1,0,0,1,16,21Z"/><path class="cls-1" d="M19,13H11a1,1,0,0,1,0-2h8a1,1,0,0,1,0,2Z"/><path class="cls-1" d="M16,16a1,1,0,0,1-.71-.29,1,1,0,0,1,0-1.42L17.59,12l-2.3-2.29a1,1,0,0,1,1.42-1.42l3,3a1,1,0,0,1,0,1.42l-3,3A1,1,0,0,1,16,16Z"/></g><g id="transparent_bounding_box" data-name="transparent bounding box"><rect class="cls-2" width="24" height="24"/></g></svg>