<svg xmlns="http://www.w3.org/2000/svg" viewBox="0 0 24 24"><defs><style>.cls-1{fill:#000000;}.cls-2{fill:none;}</style></defs><g id="Layer_1" data-name="Layer 1"><path class="cls-1" d="M12,22a9.93,9.93,0,0,1-7.07-2.93h0A10,10,0,1,1,12,22ZM12,4A8,8,0,0,0,6.34,17.66h0A8,8,0,1,0,12,4Zm0,7a1,1,0,1,0,1,1A1,1,0,0,0,12,11ZM8,11a1,1,0,1,0,1,1A1,1,0,0,0,8,11Zm8,0a1,1,0,1,0,1,1A1,1,0,0,0,16,11Z"/></g><g id="transparent_bounding_box" data-name="transparent bounding box"><rect class="cls-2" width="24" height="24"/></g></svg>