<svg xmlns="http://www.w3.org/2000/svg" viewBox="0 0 24 24"><defs><style>.cls-1{fill:#000000;}.cls-2{fill:none;}</style></defs><g id="Layer_1" data-name="Layer 1"><path class="cls-1" d="M20,10a1,1,0,0,1-1-1V5H15a1,1,0,0,1,0-2h6V9A1,1,0,0,1,20,10Z"/><path class="cls-1" d="M4,10A1,1,0,0,1,3,9V3H9A1,1,0,0,1,9,5H5V9A1,1,0,0,1,4,10Z"/><path class="cls-1" d="M21,21H15a1,1,0,0,1,0-2h4V15a1,1,0,0,1,2,0Z"/><path class="cls-1" d="M9,21H3V15a1,1,0,0,1,2,0v4H9a1,1,0,0,1,0,2Z"/></g><g id="transparent_bounding_box" data-name="transparent bounding box"><rect class="cls-2" width="24" height="24"/></g></svg>