<svg xmlns="http://www.w3.org/2000/svg" viewBox="0 0 24 24"><defs><style>.cls-1{fill:#000000;}.cls-2{fill:none;}</style></defs><g id="Layer_1" data-name="Layer 1"><path class="cls-1" d="M19,21H4a1,1,0,0,1-1-1V5A1,1,0,0,1,4,4h7.06a1,1,0,1,1,0,2H5V19H18V12.94a1,1,0,1,1,2,0V20A1,1,0,0,1,19,21ZM20,3H15a1,1,0,0,0,0,2h2.59l-6.3,6.29a1,1,0,0,0,0,1.42,1,1,0,0,0,1.42,0L19,6.41V9a1,1,0,0,0,2,0V4A1,1,0,0,0,20,3Z"/></g><g id="transparent_bounding_box" data-name="transparent bounding box"><rect class="cls-2" width="24" height="24"/></g></svg>