<svg xmlns="http://www.w3.org/2000/svg" viewBox="0 0 24 24"><defs><style>.cls-1{fill:#000000;}.cls-2{fill:none;}</style></defs><g id="Layer_1" data-name="Layer 1"><path class="cls-1" d="M15.74,9.74A6,6,0,0,1,14,12.37c-.44.44-1,1-1,1.31a1,1,0,1,1-1.91,0,3.83,3.83,0,0,1,1.47-2.59l0-.06a4.59,4.59,0,0,0,1.29-1.77A1.46,1.46,0,0,0,13.7,8,2,2,0,0,0,12,7.41a1.7,1.7,0,0,0-1.67.93,2.73,2.73,0,0,0-.27,1,.93.93,0,0,1-.95.93h0a.94.94,0,0,1-1-.94,4.69,4.69,0,0,1,.47-1.86,3.52,3.52,0,0,1,3.39-2,3.71,3.71,0,0,1,3.15,1.35A3.25,3.25,0,0,1,15.74,9.74Zm-3.59,5.73a1.25,1.25,0,1,0,1.25,1.25A1.25,1.25,0,0,0,12.15,15.47Zm7,3.34A10,10,0,1,0,12,21.73,10,10,0,0,0,19.1,18.81ZM17.69,6.08A8,8,0,1,1,12,3.74,8,8,0,0,1,17.69,6.08Z"/></g><g id="transparent_bounding_box" data-name="transparent bounding box"><rect class="cls-2" width="24" height="24"/></g></svg>