<svg xmlns="http://www.w3.org/2000/svg" viewBox="0 0 24 24"><defs><style>.cls-1{fill:#000000;}.cls-2{fill:none;}</style></defs><g id="Layer_1" data-name="Layer 1"><path class="cls-1" d="M4,21a1,1,0,0,1-.71-.29A1,1,0,0,1,3,19.8L4,15.1a1,1,0,0,1,.27-.51l11.3-11.3a1,1,0,0,1,1.41,0l3.77,3.77a1,1,0,0,1,0,1.41L9.41,19.77A1,1,0,0,1,8.9,20L4.2,21Zm1.86-5.21-.59,2.94,2.94-.59L18.59,7.76,16.24,5.41Z"/></g><g id="transparent_bounding_box" data-name="transparent bounding box"><rect class="cls-2" width="24" height="24"/></g></svg>