<svg xmlns="http://www.w3.org/2000/svg" viewBox="0 0 24 24"><defs><style>.cls-1{fill:#000000;}.cls-2{fill:none;}</style></defs><g id="Layer_1" data-name="Layer 1"><path class="cls-1" d="M12,2A10,10,0,1,0,22,12,10,10,0,0,0,12,2Zm7.93,9H17.44a12.92,12.92,0,0,0-2.85-6.56A8,8,0,0,1,19.93,11ZM11,13v5.36A11.27,11.27,0,0,1,8.56,13ZM8.56,11A11.27,11.27,0,0,1,11,5.64V11ZM13,13h2.44A11.27,11.27,0,0,1,13,18.36Zm0-2V5.64A11.27,11.27,0,0,1,15.44,11ZM9.41,4.44A12.92,12.92,0,0,0,6.56,11H4.07A8,8,0,0,1,9.41,4.44ZM4.07,13H6.56a12.92,12.92,0,0,0,2.85,6.56A8,8,0,0,1,4.07,13Zm10.52,6.56A12.92,12.92,0,0,0,17.44,13h2.49A8,8,0,0,1,14.59,19.56Z"/></g><g id="transparent_bounding_box" data-name="transparent bounding box"><rect class="cls-2" width="24" height="24"/></g></svg>