<svg xmlns="http://www.w3.org/2000/svg" viewBox="0 0 24 24"><defs><style>.cls-1{fill:#000000;}.cls-2{fill:none;}</style></defs><g id="Layer_1" data-name="Layer 1"><path class="cls-1" d="M21.66,11.25l-9-8a1,1,0,0,0-1.32,0l-9,8a1,1,0,0,0,1.32,1.5L5,11.56V20a1,1,0,0,0,1,1H18a1,1,0,0,0,1-1V11.56l1.34,1.19a1,1,0,0,0,1.41-.09A1,1,0,0,0,21.66,11.25ZM17,10v9H7V10a1,1,0,0,0,0-.18l5-4.48,5,4.48A1,1,0,0,0,17,10Z"/></g><g id="transparent_bounding_box" data-name="transparent bounding box"><rect class="cls-2" width="24" height="24"/></g></svg>