<svg xmlns="http://www.w3.org/2000/svg" viewBox="0 0 24 24"><defs><style>.cls-1{fill:#000000;}.cls-2{fill:none;}</style></defs><g id="Layer_1" data-name="Layer 1"><path class="cls-1" d="M19.94,7.38a1,1,0,0,0-.84-.87,15,15,0,0,1-6.43-3.26,1.29,1.29,0,0,0-.16-.09l-.14-.09A1,1,0,0,0,12,3H12a1,1,0,0,0-.34.06l-.14.09a1.29,1.29,0,0,0-.16.09A15,15,0,0,1,4.9,6.51a1,1,0,0,0-.84.87c0,.11-1.13,10.84,7.64,13.57a.92.92,0,0,0,.6,0C21.07,18.22,20,7.49,19.94,7.38ZM6,8.32A15.5,15.5,0,0,0,11,6V18.53C6.17,16.16,5.93,10.37,6,8.32Zm7,10.21V6a15.5,15.5,0,0,0,5,2.31C18.07,10.37,17.83,16.16,13,18.53Z"/></g><g id="transparent_bounding_box" data-name="transparent bounding box"><rect class="cls-2" width="24" height="24"/></g></svg>