<svg xmlns="http://www.w3.org/2000/svg" viewBox="0 0 24 24"><defs><style>.cls-1{fill:#000000;}.cls-2{fill:none;}</style></defs><g id="Layer_1" data-name="Layer 1"><path class="cls-1" d="M22,12a10,10,0,0,1-8.41,9.88h-.16a1,1,0,0,1-.15-2A8,8,0,0,0,12,4l-.09,0a8.88,8.88,0,0,0-1.71.2.91.91,0,0,1-.23,0,1,1,0,0,1-.22-2A10.17,10.17,0,0,1,12,2h0l.12,0A10,10,0,0,1,22,12ZM3,12.9a1,1,0,0,0,1-1,8.64,8.64,0,0,1,.21-1.76,1,1,0,0,0-1.94-.46A10.19,10.19,0,0,0,2,11.89a1,1,0,0,0,1,1Zm1.74,2.46a1,1,0,0,0-1.82.84,10.23,10.23,0,0,0,1.15,1.9,1,1,0,0,0,1.41.18,1,1,0,0,0,.18-1.4A7.6,7.6,0,0,1,4.74,15.36ZM10,19.76a8.11,8.11,0,0,1-1.66-.63,1,1,0,1,0-.91,1.78,9.66,9.66,0,0,0,2.08.78A1,1,0,0,0,10,19.76ZM7.18,4.33a1,1,0,0,0-1.4-.16A9.65,9.65,0,0,0,4.21,5.73a1,1,0,0,0,.15,1.41A1,1,0,0,0,5,7.36,1,1,0,0,0,5.77,7,7.84,7.84,0,0,1,7,5.73,1,1,0,0,0,7.18,4.33Z"/></g><g id="transparent_bounding_box" data-name="transparent bounding box"><rect class="cls-2" width="24" height="24"/></g></svg>