<svg xmlns="http://www.w3.org/2000/svg" viewBox="0 0 24 24"><defs><style>.cls-1{fill:#000000;}.cls-2{fill:none;}</style></defs><g id="Layer_1" data-name="Layer 1"><path class="cls-1" d="M15,18.5H9a1,1,0,0,1-1-1V15.25A7,7,0,1,1,19,9.5a7.06,7.06,0,0,1-3,5.75V17.5A1,1,0,0,1,15,18.5Zm-5-2h4V14.7a1,1,0,0,1,.5-.87,5,5,0,1,0-5,0,1,1,0,0,1,.5.87Z"/><path class="cls-1" d="M15,21.5H9a1,1,0,0,1,0-2h6a1,1,0,0,1,0,2Z"/></g><g id="transparent_bounding_box" data-name="transparent bounding box"><rect class="cls-2" width="24" height="24"/></g></svg>