<svg xmlns="http://www.w3.org/2000/svg" viewBox="0 0 24 24"><defs><style>.cls-1{fill:#000000;}.cls-2{fill:none;}</style></defs><g id="Layer_1" data-name="Layer 1"><path class="cls-1" d="M12,21.55h0a1,1,0,0,1-.72-.31L6,15.76a8,8,0,1,1,12,0h0l-.87.91-4.46,4.61A1,1,0,0,1,12,21.55ZM12,4.45a6,6,0,0,0-4.5,10L12,19.11l4.56-4.73A5.94,5.94,0,0,0,18,10.45,6,6,0,0,0,12,4.45Zm5.26,10.61h0ZM12,14.45a4,4,0,1,1,4-4A4,4,0,0,1,12,14.45Zm0-6a2,2,0,1,0,2,2A2,2,0,0,0,12,8.45Z"/></g><g id="transparent_bounding_box" data-name="transparent bounding box"><rect class="cls-2" width="24" height="24"/></g></svg>