<svg xmlns="http://www.w3.org/2000/svg" viewBox="0 0 24 24"><defs><style>.cls-1{fill:#000000;}.cls-2{fill:none;}</style></defs><g id="Layer_1" data-name="Layer 1"><path class="cls-1" d="M19,10H17V7.44C17,3.93,15.22,2,12,2S7,3.93,7,7.44V10H5a1,1,0,0,0-1,1V21a1,1,0,0,0,1,1H19a1,1,0,0,0,1-1V11A1,1,0,0,0,19,10ZM9,7.44C9,4.41,10.52,4,12,4s3,.41,3,3.44V10H9ZM18,20H6V12H18Z"/></g><g id="transparent_bounding_box" data-name="transparent bounding box"><rect class="cls-2" width="24" height="24"/></g></svg>