<svg xmlns="http://www.w3.org/2000/svg" viewBox="0 0 24 24"><defs><style>.cls-1{fill:#000000;}.cls-2{fill:none;}</style></defs><title>00</title><g id="Layer_1" data-name="Layer 1"><path class="cls-1" d="M15.53,15.1A2.88,2.88,0,0,1,13,17.68v.13a1,1,0,0,1-2,0v-.13A2.87,2.87,0,0,1,8.47,15.1a1,1,0,0,1,2,0c0,.24.6.7,1.53.7s1.53-.46,1.53-.7-.47-.56-1.59-.69l-.13,0c-2.46-.29-3.34-1.57-3.34-2.68A2.87,2.87,0,0,1,11,9.14V9a1,1,0,0,1,2,0v.14a2.87,2.87,0,0,1,2.53,2.57,1,1,0,0,1-2,0c0-.24-.6-.69-1.53-.69s-1.53.45-1.53.69.47.56,1.59.7h.12C14.65,12.71,15.53,14,15.53,15.1ZM12,22c5.28,0,8.19-2.26,8.19-6.35,0-3.22-1.91-7.69-4.83-9.8l1.11-1.31a1.54,1.54,0,0,0,.33-1.7A1.55,1.55,0,0,0,15.3,2H8.7a1.55,1.55,0,0,0-1.52.84,1.54,1.54,0,0,0,.33,1.7L8.62,5.85C5.7,8,3.79,12.43,3.79,15.65,3.79,19.74,6.7,22,12,22h0ZM10.81,5.35,9.67,4h4.66L13.19,5.35h0a1.2,1.2,0,0,0-.27.86,1.2,1.2,0,0,0,.73.91c2.61,1.41,4.56,5.67,4.56,8.53S16.12,20,12,20s-6.21-1.47-6.21-4.35,2-7.12,4.57-8.54a1.18,1.18,0,0,0,.72-.9,1.2,1.2,0,0,0-.27-.86Z"/></g><g id="transparent_bounding_box" data-name="transparent bounding box"><rect class="cls-2" width="24" height="24"/></g></svg>