<svg xmlns="http://www.w3.org/2000/svg" viewBox="0 0 24 24"><defs><style>.cls-1{fill:#000000;}.cls-2{fill:none;}</style></defs><g id="Layer_1" data-name="Layer 1"><path class="cls-1" d="M21,6.5H17.83V4.12A2.12,2.12,0,0,0,15.71,2H9A2.13,2.13,0,0,0,6.83,4.12V6.5H3a1,1,0,0,0-1,1V21a1,1,0,0,0,1,1H21a1,1,0,0,0,1-1V7.5A1,1,0,0,0,21,6.5ZM8.83,4.12A.13.13,0,0,1,9,4h6.75a.12.12,0,0,1,.12.12V6.5h-7ZM20,20H4V8.5H20Zm-4-5.5a1,1,0,0,1-1,1H13v2a1,1,0,0,1-2,0v-2H9a1,1,0,0,1,0-2h2v-2a1,1,0,0,1,2,0v2h2A1,1,0,0,1,16,14.5Z"/></g><g id="transparent_bounding_box" data-name="transparent bounding box"><rect class="cls-2" width="24" height="24"/></g></svg>