<svg xmlns="http://www.w3.org/2000/svg" viewBox="0 0 24 24"><defs><style>.cls-1{fill:#000000;}.cls-2{fill:none;}</style></defs><g id="Layer_1" data-name="Layer 1"><path class="cls-1" d="M12.23,11,12,11c-1.46-.2-3-.83-3-2s1.37-2,3-2,3,.91,3,2a1,1,0,0,0,2,0c0-1.93-1.72-3.55-4-3.92V3a1,1,0,0,0-2,0V5.08c-2.28.37-4,2-4,3.92s1.83,3.59,4.76,4l.2,0c1.47.2,3,.83,3,2s-1.37,2-3,2-3-.91-3-2a1,1,0,0,0-2,0c0,1.93,1.72,3.55,4,3.92V21a1,1,0,0,0,2,0V18.92c2.28-.37,4-2,4-3.92S15.17,11.41,12.23,11Z"/></g><g id="transparent_bounding_box" data-name="transparent bounding box"><rect class="cls-2" width="24" height="24"/></g></svg>