<svg xmlns="http://www.w3.org/2000/svg" viewBox="0 0 24 24"><defs><style>.cls-1{fill:#000000;}.cls-2{fill:none;}</style></defs><g id="Layer_1" data-name="Layer 1"><path class="cls-1" d="M21,2.31H3a1,1,0,0,0-1,1V20.69a1,1,0,0,0,2,0V16.33H20v4.36a1,1,0,0,0,2,0V3.31A1,1,0,0,0,21,2.31Zm-8.42,2L10,9.22h-3L9.53,4.31Zm2.26,0h3L15.25,9.22h-3ZM20,4.53V9.22H17.51ZM4,4.31H7.27L4.68,9.22H4Zm0,10V11.22H20v3.11Z"/></g><g id="transparent_bounding_box" data-name="transparent bounding box"><rect class="cls-2" width="24" height="24"/></g></svg>