<svg xmlns="http://www.w3.org/2000/svg" viewBox="0 0 24 24"><defs><style>.cls-1{fill:#000000;}.cls-2{fill:none;}</style></defs><g id="Layer_1" data-name="Layer 1"><path class="cls-1" d="M6.5,10A3.5,3.5,0,1,1,10,6.5,3.5,3.5,0,0,1,6.5,10Zm0-5A1.5,1.5,0,1,0,8,6.5,1.5,1.5,0,0,0,6.5,5Zm11,16A3.5,3.5,0,1,1,21,17.5,3.5,3.5,0,0,1,17.5,21Zm0-5A1.5,1.5,0,1,0,19,17.5,1.5,1.5,0,0,0,17.5,16ZM4.71,20.71l16-16a1,1,0,1,0-1.42-1.42l-16,16a1,1,0,0,0,0,1.42,1,1,0,0,0,1.42,0Z"/></g><g id="transparent_bounding_box" data-name="transparent bounding box"><rect class="cls-2" width="24" height="24"/></g></svg>