<svg xmlns="http://www.w3.org/2000/svg" viewBox="0 0 24 24"><defs><style>.cls-1{fill:#000000;}.cls-2{fill:none;}</style></defs><g id="Layer_1" data-name="Layer 1"><path class="cls-1" d="M22,12A10,10,0,0,0,6.21,3.86h0s0,0,0,0a11.09,11.09,0,0,0-1.23,1,9.93,9.93,0,0,0-2.68,9.26h0v0A10,10,0,0,0,12,22a10.11,10.11,0,0,0,3.34-.58h.05A10,10,0,0,0,22,12ZM8.19,5A7.9,7.9,0,0,1,11,4.07V8.88ZM6.34,6.34a2.29,2.29,0,0,0,.23-.21l3.74,5.23L4,12.77A6.51,6.51,0,0,1,4,12,8,8,0,0,1,6.34,6.34Zm0,11.32a8.16,8.16,0,0,1-1.86-2.94l6.88-1.55,2.37,6.64A8.26,8.26,0,0,1,12,20,8,8,0,0,1,6.34,17.66Zm9.28,1.47L13,11.83V4.07a8,8,0,0,1,4.66,13.59A8.33,8.33,0,0,1,15.62,19.13Z"/></g><g id="transparent_bounding_box" data-name="transparent bounding box"><rect class="cls-2" width="24" height="24"/></g></svg>