<svg xmlns="http://www.w3.org/2000/svg" viewBox="0 0 24 24"><defs><style>.cls-1{fill:#000000;}.cls-2{fill:none;}</style></defs><g id="Layer_1" data-name="Layer 1"><path class="cls-1" d="M15.33,11.66A5,5,0,0,0,17,8,5,5,0,0,0,7,8a5,5,0,0,0,1.67,3.7,9.9,9.9,0,0,0-5.62,8.25,1,1,0,1,0,2,.19C5.42,16,8.41,13,12,13s6.59,3.08,7,7.17A1,1,0,0,0,20,21h.09A1,1,0,0,0,21,20,9.87,9.87,0,0,0,15.33,11.66ZM9,8a3,3,0,1,1,3,3A3,3,0,0,1,9,8Z"/></g><g id="transparent_bounding_box" data-name="transparent bounding box"><rect class="cls-2" width="24" height="24"/></g></svg>