<svg xmlns="http://www.w3.org/2000/svg" viewBox="0 0 24 24"><defs><style>.cls-1{fill:#000000;}.cls-2{fill:none;}</style></defs><g id="Layer_1" data-name="Layer 1"><path class="cls-1" d="M12,22.09A10.09,10.09,0,1,1,12,1.91a1,1,0,0,1,0,2,8.09,8.09,0,1,0,5.73,13.81,8.12,8.12,0,0,0,2.34-5.07,1,1,0,0,1,2,.16A10.07,10.07,0,0,1,12,22.09Z"/><path class="cls-1" d="M16.81,13.8H12a1,1,0,0,1-1-1V8.52a1,1,0,0,1,2,0V11.8h3.81a1,1,0,0,1,0,2Z"/></g><g id="transparent_bounding_box" data-name="transparent bounding box"><rect class="cls-2" width="24" height="24"/></g></svg>