<svg xmlns="http://www.w3.org/2000/svg" viewBox="0 0 24 24"><defs><style>.cls-1{fill:#000000;}.cls-2{fill:none;}</style></defs><g id="Layer_1" data-name="Layer 1"><path class="cls-1" d="M16.91,22h-.15a10.32,10.32,0,0,1-4.44-1.26,20.25,20.25,0,0,1-9-9A9.73,9.73,0,0,1,2,7,3.73,3.73,0,0,1,3,4.53c.65-.69,1.17-1.22,1.7-1.71a2.73,2.73,0,0,1,3.81-.08,34.86,34.86,0,0,1,2.66,2.65,2.74,2.74,0,0,1,0,3.72c-.33.36-.64.68-.95,1a10.64,10.64,0,0,0,2.07,2.4,14.41,14.41,0,0,0,1.43,1.08l.27.2c.25-.26.5-.49.74-.72A2.85,2.85,0,0,1,18.75,13c.73.67,1.52,1.45,2.39,2.38a2.78,2.78,0,0,1,0,4h0C20.57,20,20,20.52,19.48,21A3.82,3.82,0,0,1,16.91,22ZM6.64,4A.92.92,0,0,0,6,4.3c-.47.44-1,.94-1.59,1.6A1.73,1.73,0,0,0,4,7.09a8,8,0,0,0,1,3.77A18.36,18.36,0,0,0,13.23,19a8.3,8.3,0,0,0,3.53,1h.11a1.8,1.8,0,0,0,1.27-.46c.49-.46,1-1,1.54-1.54a.81.81,0,0,0,0-1.29c-.83-.88-1.59-1.63-2.29-2.27a.86.86,0,0,0-.63-.31,1,1,0,0,0-.7.36,12.67,12.67,0,0,0-1,1,1.38,1.38,0,0,1-1.88.23l-.68-.48A18.84,18.84,0,0,1,10.92,14a13,13,0,0,1-2.68-3.23,1.43,1.43,0,0,1,.29-1.89A13.75,13.75,0,0,0,9.61,7.79a.72.72,0,0,0,0-1.07,30.8,30.8,0,0,0-2.5-2.49A.72.72,0,0,0,6.64,4Z"/></g><g id="transparent_bounding_box" data-name="transparent bounding box"><rect class="cls-2" width="24" height="24"/></g></svg>