<svg xmlns="http://www.w3.org/2000/svg" viewBox="0 0 24 24"><defs><style>.cls-1{fill:#000000;}.cls-2{fill:none;}</style></defs><g id="Layer_1" data-name="Layer 1"><path class="cls-1" d="M11.13,19A7,7,0,0,1,8,6.26V9a1,1,0,0,0,2,0V4A1,1,0,0,0,9,3H4A1,1,0,0,0,4,5H6.37A8.9,8.9,0,0,0,3,12a9,9,0,0,0,7.88,8.93H11a1,1,0,0,0,.13-2Z"/><path class="cls-1" d="M20,19H17.63A9,9,0,0,0,13.07,3.06a1,1,0,0,0-.23,2A7,7,0,0,1,16,17.75V15a1,1,0,0,0-2,0v5a1,1,0,0,0,1,1h5a1,1,0,0,0,0-2Z"/></g><g id="transparent_bounding_box" data-name="transparent bounding box"><rect class="cls-2" width="24" height="24"/></g></svg>