<svg xmlns="http://www.w3.org/2000/svg" viewBox="0 0 24 24"><defs><style>.cls-1{fill:#000000;}.cls-2{fill:none;}</style></defs><g id="Layer_1" data-name="Layer 1"><path class="cls-1" d="M7.12,21.58a2.22,2.22,0,0,1-1.33-.45A2.17,2.17,0,0,1,5,18.68l1.37-4.17L2.81,12A2.21,2.21,0,0,1,4.12,8H8.54L9.93,3.9A2.16,2.16,0,0,1,12,2.42h0a2.16,2.16,0,0,1,2.09,1.47L15.53,8l4.35,0a2.21,2.21,0,0,1,1.32,4l-3.57,2.64L19,18.7a2.16,2.16,0,0,1-.8,2.44,2.19,2.19,0,0,1-2.59,0l-3.53-2.5L8.39,21.18A2.22,2.22,0,0,1,7.12,21.58ZM4.12,10a.2.2,0,0,0-.2.15.19.19,0,0,0,.07.23L7.58,13a1.93,1.93,0,0,1,.7,2.15L6.92,19.3a.17.17,0,0,0,.07.23.18.18,0,0,0,.25,0L10.85,17a2,2,0,0,1,2.35,0l3.54,2.49a.19.19,0,0,0,.25,0,.19.19,0,0,0,.08-.23l-1.33-4.19a1.92,1.92,0,0,1,.7-2.13L20,10.35a.19.19,0,0,0,.07-.23.2.2,0,0,0-.2-.15H15.54a2,2,0,0,1-1.9-1.33l-1.41-4.1c0-.1-.17-.1-.2-.12a.21.21,0,0,0-.21.12L10.45,8.63A2,2,0,0,1,8.54,10Z"/></g><g id="transparent_bounding_box" data-name="transparent bounding box"><rect class="cls-2" width="24" height="24"/></g></svg>