<svg xmlns="http://www.w3.org/2000/svg" viewBox="0 0 24 24"><defs><style>.cls-1{fill:#000000;}.cls-2{fill:none;}</style></defs><g id="Layer_1" data-name="Layer 1"><path class="cls-1" d="M21,4.12H17.75V3a1,1,0,0,0-2,0V4.12H8.25V3a1,1,0,0,0-2,0V4.12H3a1,1,0,0,0-1,1V21a1,1,0,0,0,1,1H21a1,1,0,0,0,1-1V5.12A1,1,0,0,0,21,4.12Zm-14.75,2v.13a1,1,0,0,0,2,0V6.12h7.5v.13a1,1,0,0,0,2,0V6.12H20V8.44H4V6.12ZM20,20H4V10.44H20Z"/><path class="cls-1" d="M9,15.67h3.47l-.82.77a1,1,0,0,0-.05,1.41,1,1,0,0,0,1.42,0l2.66-2.5s0,0,0,0a.69.69,0,0,0,.16-.22s.05-.06.06-.1a.86.86,0,0,0,.09-.39,1,1,0,0,0-.32-.73L13,11.44a1,1,0,1,0-1.37,1.46l.82.77H9a1,1,0,0,0,0,2Z"/></g><g id="transparent_bounding_box" data-name="transparent bounding box"><rect class="cls-2" width="24" height="24"/></g></svg>