<svg xmlns="http://www.w3.org/2000/svg" viewBox="0 0 24 24"><defs><style>.cls-1{fill:#000000;}.cls-2{fill:none;}</style></defs><g id="Layer_1" data-name="Layer 1"><path class="cls-1" d="M20,21H4a1,1,0,0,1-1-1V8A1,1,0,0,1,4,7H20a1,1,0,0,1,1,1V20A1,1,0,0,1,20,21ZM5,19H19V9H5Z"/><path class="cls-1" d="M20,13H4a1,1,0,0,1,0-2H20a1,1,0,0,1,0,2Z"/><path class="cls-1" d="M16,9a1,1,0,0,1-1-1V5H9V8A1,1,0,0,1,7,8V5A2,2,0,0,1,9,3h6a2,2,0,0,1,2,2V8A1,1,0,0,1,16,9Z"/></g><g id="transparent_bounding_box" data-name="transparent bounding box"><rect class="cls-2" width="24" height="24"/></g></svg>