<svg xmlns="http://www.w3.org/2000/svg" viewBox="0 0 24 24"><defs><style>.cls-1{fill:#000000;}.cls-2{fill:none;}</style></defs><g id="Layer_1" data-name="Layer 1"><path class="cls-1" d="M14.06,22H9.94a1.5,1.5,0,0,1-1.51-1.5V18.64a6.24,6.24,0,0,1-.83-.49L5.86,19a1.53,1.53,0,0,1-2-.63l-1.9-3.56a1.49,1.49,0,0,1,.66-2l1.71-.87v-.21l-1.67-.93a1.51,1.51,0,0,1-.56-2.07L4.14,5.26A1.54,1.54,0,0,1,6.2,4.71l1.69,1a4.68,4.68,0,0,1,.54-.3V3.5A1.5,1.5,0,0,1,9.94,2h4.12a1.5,1.5,0,0,1,1.51,1.5V5.36a6.24,6.24,0,0,1,.83.49L18.14,5a1.53,1.53,0,0,1,2,.63l1.9,3.56a1.44,1.44,0,0,1,.1,1.15,1.49,1.49,0,0,1-.75.88l-1.72.87v.21l1.67.93a1.52,1.52,0,0,1,.71.92,1.49,1.49,0,0,1-.15,1.15l-2.07,3.46a1.52,1.52,0,0,1-2.05.55l-1.69-.95a4.68,4.68,0,0,1-.54.3V20.5A1.5,1.5,0,0,1,14.06,22Zm-3.63-2h3.14V17.33l.63-.25a6.12,6.12,0,0,0,1.27-.72L16,16l2.39,1.34,1.55-2.61-2.37-1.33.09-.68a5.37,5.37,0,0,0,0-.7,3.39,3.39,0,0,0,0-.45l-.06-.68,2.44-1.22L18.62,7,16.17,8.21l-.5-.42a5.88,5.88,0,0,0-1.47-.87l-.63-.25V4H10.43V6.67l-.63.25a6.12,6.12,0,0,0-1.27.72L8,8,5.62,6.68,4.07,9.29l2.37,1.33-.09.68a5.37,5.37,0,0,0,0,.7,3.39,3.39,0,0,0,0,.45l.06.68L4,14.35,5.38,17l2.45-1.24.5.41a5.63,5.63,0,0,0,1.47.88l.63.25Zm8.35-2.46Z"/><path class="cls-1" d="M12,16a4,4,0,1,1,4.09-4A4.05,4.05,0,0,1,12,16Zm0-6a2,2,0,1,0,2.09,2A2.05,2.05,0,0,0,12,10Z"/></g><g id="transparent_bounding_box" data-name="transparent bounding box"><rect class="cls-2" width="24" height="24"/></g></svg>