<svg xmlns="http://www.w3.org/2000/svg" viewBox="0 0 24 24"><defs><style>.cls-1{fill:#000000;}.cls-2{fill:none;}</style></defs><g id="Layer_1" data-name="Layer 1"><path class="cls-1" d="M15.93,8.07a7,7,0,1,0-7.86,7.86,7,7,0,1,0,7.86-7.86ZM15,20a5,5,0,0,1-4.91-4.09,7,7,0,0,0,4.8-3.12,1,1,0,1,0-1.68-1.09,5,5,0,1,1,.7-3.61,7,7,0,0,0-5.07,3.58A1,1,0,0,0,9.25,13a1,1,0,0,0,1.35-.4A5,5,0,1,1,15,20Z"/></g><g id="transparent_bounding_box" data-name="transparent bounding box"><rect class="cls-2" width="24" height="24"/></g></svg>