<svg xmlns="http://www.w3.org/2000/svg" viewBox="0 0 24 24"><defs><style>.cls-1{fill:#000000;}.cls-2{fill:none;}</style></defs><g id="Layer_1" data-name="Layer 1"><path class="cls-1" d="M10.5,18.5a8,8,0,1,1,8-8A8,8,0,0,1,10.5,18.5Zm0-14a6,6,0,1,0,6,6A6,6,0,0,0,10.5,4.5Z"/><path class="cls-1" d="M20.5,21.5a1,1,0,0,1-.71-.29l-5-5a1,1,0,0,1,1.42-1.42l5,5a1,1,0,0,1,0,1.42A1,1,0,0,1,20.5,21.5Z"/></g><g id="transparent_bounding_box" data-name="transparent bounding box"><rect class="cls-2" width="24" height="24"/></g></svg>