<svg xmlns="http://www.w3.org/2000/svg" viewBox="0 0 24 24"><defs><style>.cls-1{fill:#000000;}.cls-2{fill:none;}</style></defs><g id="Layer_1" data-name="Layer 1"><path class="cls-1" d="M22,5.28a6.12,6.12,0,0,1-2.32.7,4.3,4.3,0,0,0,1.78-2.4,8.65,8.65,0,0,1-2.63,1.08A3.92,3.92,0,0,0,15.9,3.27a4.24,4.24,0,0,0-4.09,4.41,4.86,4.86,0,0,0,.07,1A11.26,11.26,0,0,1,3.47,4.12a4.16,4.16,0,0,0-.54,2.24A4.38,4.38,0,0,0,4.7,10a3.71,3.71,0,0,1-1.85-.54v.08a4.42,4.42,0,0,0,3.24,4.32A4.38,4.38,0,0,1,5,14a2.53,2.53,0,0,1-.77-.08,4,4,0,0,0,3.78,3A7.87,7.87,0,0,1,3,18.8a4.57,4.57,0,0,1-1-.08,11,11,0,0,0,6.25,2c7.5,0,11.59-6.65,11.59-12.44V7.75A9.24,9.24,0,0,0,22,5.28Z"/></g><g id="transparent_bounding_box" data-name="transparent bounding box"><rect class="cls-2" width="24" height="24"/></g></svg>