<svg xmlns="http://www.w3.org/2000/svg" viewBox="0 0 24 24"><defs><style>.cls-1{fill:#000000;}.cls-2{fill:none;}</style></defs><g id="Layer_1" data-name="Layer 1"><path class="cls-1" d="M21,8a1,1,0,0,0-.32-.72l-4-4a1,1,0,0,0-1.42,1.42L17.58,7H4A1,1,0,0,0,4,9H17.59l-2.3,2.29a1,1,0,0,0,0,1.42,1,1,0,0,0,1.42,0l4-4A1.05,1.05,0,0,0,21,8Z"/><path class="cls-1" d="M20,15H6.41l2.3-2.29a1,1,0,0,0-1.42-1.42l-4,4A1.05,1.05,0,0,0,3,16H3a1,1,0,0,0,.32.72l4,4a1,1,0,0,0,1.42,0,1,1,0,0,0,0-1.42L6.42,17H20a1,1,0,0,0,0-2Z"/></g><g id="transparent_bounding_box" data-name="transparent bounding box"><rect class="cls-2" width="24" height="24"/></g></svg>