<svg xmlns="http://www.w3.org/2000/svg" viewBox="0 0 24 24"><defs><style>.cls-1{fill:#000000;}.cls-2{fill:none;}</style></defs><g id="Layer_1" data-name="Layer 1"><path class="cls-1" d="M20,6H17V4a2,2,0,0,0-2-2H9A2,2,0,0,0,7,4V6H4A1,1,0,0,0,4,8H5V22H19V8h1a1,1,0,0,0,0-2ZM9,4h6V6H9Zm8,16H7V8H17Z"/><path class="cls-1" d="M10,19a1,1,0,0,0,1-1V10a1,1,0,0,0-2,0v8A1,1,0,0,0,10,19Z"/><path class="cls-1" d="M14,19a1,1,0,0,0,1-1V10a1,1,0,0,0-2,0v8A1,1,0,0,0,14,19Z"/></g><g id="transparent_bounding_box" data-name="transparent bounding box"><rect class="cls-2" width="24" height="24"/></g></svg>