<svg xmlns="http://www.w3.org/2000/svg" viewBox="0 0 24 24"><defs><style>.cls-1{fill:#000000;}.cls-2{fill:none;}</style></defs><g id="Layer_1" data-name="Layer 1"><path class="cls-1" d="M8,12a1,1,0,0,1-1-1V7.44C7,3.93,8.78,2,12,2a4.5,4.5,0,0,1,4.86,3.82,1,1,0,0,1-2,.38C14.6,4.68,13.71,4,12,4c-1.48,0-3,.41-3,3.44V11A1,1,0,0,1,8,12Z"/><path class="cls-1" d="M19,22H5a1,1,0,0,1-1-1V11a1,1,0,0,1,1-1H19a1,1,0,0,1,1,1V21A1,1,0,0,1,19,22ZM6,20H18V12H6Z"/></g><g id="transparent_bounding_box" data-name="transparent bounding box"><rect class="cls-2" width="24" height="24"/></g></svg>