<svg xmlns="http://www.w3.org/2000/svg" viewBox="0 0 24 24"><defs><style>.cls-1{fill:#000000;}.cls-2{fill:none;}</style></defs><g id="Layer_1" data-name="Layer 1"><path class="cls-1" d="M20,21.5H4a1,1,0,0,1,0-2H20a1,1,0,0,1,0,2ZM16.71,6.79l-4-4A1,1,0,0,0,12,2.5h0a1,1,0,0,0-.73.32l-4,4A1,1,0,0,0,8.71,8.21L11,5.92V16.5a1,1,0,0,0,2,0V5.91l2.29,2.3a1,1,0,0,0,1.42,0A1,1,0,0,0,16.71,6.79Z"/></g><g id="transparent_bounding_box" data-name="transparent bounding box"><rect class="cls-2" width="24" height="24"/></g></svg>