<svg xmlns="http://www.w3.org/2000/svg" viewBox="0 0 24 24"><defs><style>.cls-1{fill:#000000;}.cls-2{fill:none;}</style></defs><g id="Layer_1" data-name="Layer 1"><path class="cls-1" d="M17,12a1,1,0,1,1-1-1A1,1,0,0,1,17,12Zm5-3v6a1,1,0,0,1-1,1v3a1,1,0,0,1-1,1H3a1,1,0,0,1-1-1V5A1,1,0,0,1,3,4H20a1,1,0,0,1,1,1V8A1,1,0,0,1,22,9Zm-2,5V10H15a1,1,0,0,0-1,1v2a1,1,0,0,0,1,1Zm-1,2H15a3,3,0,0,1-3-3V11a3,3,0,0,1,3-3h4V6H4V18H19Z"/></g><g id="transparent_bounding_box" data-name="transparent bounding box"><rect class="cls-2" width="24" height="24"/></g></svg>