<svg xmlns="http://www.w3.org/2000/svg" viewBox="0 0 24 24"><defs><style>.cls-1{fill:#000000;}.cls-2{fill:none;}</style></defs><g id="Layer_1" data-name="Layer 1"><path class="cls-1" d="M19.92,22H4.08a2.07,2.07,0,0,1-1.86-3L10.15,3.15a2.06,2.06,0,0,1,3.7,0L21.78,19a2.07,2.07,0,0,1-1.86,3ZM11,3.59l.89.45L4,19.89l.07.11H19.92l.07-.11L12.07,4Z"/><circle class="cls-1" cx="12" cy="10" r="1"/><path class="cls-1" d="M12,19a1,1,0,0,1-1-1V13a1,1,0,0,1,2,0v5A1,1,0,0,1,12,19Z"/></g><g id="transparent_bounding_box" data-name="transparent bounding box"><rect class="cls-2" width="24" height="24"/></g></svg>